<svg width="65" height="41" viewBox="0 0 65 41" fill="none" xmlns="http://www.w3.org/2000/svg">
<g id="Logo">
<path id="Vector" fillRule="evenodd" clipRule="evenodd" d="M33.1236 5C43.0487 5 48 15.5482 48 25.35C48 33.7327 41.6119 41 33.1236 41C23.1206 41 13 35.2286 13 25.35C13 14.2418 21.8756 5 33.1236 5Z" fill="#D4CEF8" fillOpacity="0.2"/>
<path id="&#60;BL/&#62;" d="M13.5615 21.3004C13.7213 21.3767 13.838 21.4346 13.9115 21.4739C13.9954 21.4981 14.059 21.5194 14.1021 21.5379C14.1581 21.554 14.2088 21.5777 14.2543 21.609C14.3127 21.6379 14.4002 21.6813 14.5168 21.7391C14.4789 21.8918 14.4671 22.0066 14.4813 22.0834C14.4956 22.1602 14.5162 22.2358 14.5432 22.3103C14.5679 22.3719 14.5937 22.44 14.6208 22.5144C14.6606 22.5865 14.686 22.6877 14.6969 22.8181C14.0758 23.3967 13.5149 23.8715 13.0143 24.2424C12.524 24.5981 12.0406 24.9194 11.5641 25.2064C11.1004 25.491 10.6099 25.7739 10.0926 26.0552C9.58569 26.3213 8.99987 26.6616 8.33512 27.0761C8.6628 27.2008 9.07015 27.2908 9.55715 27.3462C10.0546 27.3865 10.5504 27.4535 11.0445 27.5473C11.549 27.6259 12.0171 27.7577 12.4486 27.9426C12.8802 28.1274 13.1979 28.4128 13.4019 28.7988C13.5835 28.7784 13.7561 28.8523 13.9197 29.0207C14.0961 29.1866 14.1953 29.4 14.2171 29.6608C14.1033 29.7613 13.9983 29.8735 13.9021 29.9973C13.8163 30.1059 13.6949 30.2012 13.5379 30.2832C13.4019 30.3349 13.2138 30.3566 12.9739 30.3481C12.7468 30.3372 12.4905 30.3118 12.205 30.2721C11.9323 30.2299 11.6393 30.1849 11.3258 30.137C11.0252 30.0868 10.7409 30.0534 10.473 30.0369C10.2051 30.0203 9.91272 30.0149 9.59596 30.0207C9.292 30.024 9.0025 29.9982 8.72746 29.9433C8.60275 29.9134 8.48965 29.8748 8.38816 29.8274C8.29711 29.7648 8.1916 29.7314 8.07163 29.7271C7.83406 29.7314 7.57135 29.7073 7.28351 29.6547C7.0061 29.5869 6.7211 29.5139 6.42851 29.4357C6.13592 29.3575 5.84334 29.2793 5.55075 29.2011C5.27097 29.1206 5.00636 29.0504 4.75692 28.9907C4.75549 28.9115 4.65447 28.8309 4.45388 28.7489C4.25328 28.6669 4.04938 28.6385 3.84216 28.6637C3.81369 28.51 3.72476 28.3875 3.57537 28.296C3.43642 28.1893 3.3207 28.0651 3.22821 27.9233C3.02094 27.5909 3.00927 27.2422 3.1932 26.877C3.37713 26.5119 3.70642 26.2522 4.18106 26.098C4.34419 26.1207 4.46416 26.125 4.54098 26.1108C4.62822 26.0813 4.74819 26.0856 4.90089 26.1235C5.10286 25.9272 5.35084 25.7289 5.6448 25.5288C5.9492 25.3134 6.26097 25.2093 6.5801 25.2164C6.59953 25.1068 6.66045 25.0426 6.76287 25.0236C6.8781 25.0022 6.93783 24.9316 6.94208 24.8116C7.45039 24.6247 7.9364 24.3889 8.40012 24.1044C8.86383 23.8198 9.31237 23.5248 9.74574 23.2193C10.1767 22.9011 10.5897 22.5928 10.9847 22.2945C11.39 21.981 11.781 21.6966 12.1574 21.4414C12.3462 21.4594 12.5126 21.4286 12.6568 21.3489C12.7985 21.2564 12.9538 21.2012 13.1226 21.1831C13.0913 21.2286 13.0897 21.2554 13.1177 21.2635C13.1456 21.2715 13.1864 21.2772 13.24 21.2805C13.2912 21.271 13.3436 21.268 13.3972 21.2713C13.4612 21.2594 13.516 21.2691 13.5615 21.3004ZM16.1747 20.7168C15.5966 20.5988 15.0916 20.3746 14.6595 20.0441C14.2403 19.7113 13.872 19.2962 13.5547 18.7988C13.6187 18.4294 13.7701 18.1034 14.0091 17.8207C14.2457 17.5253 14.5214 17.2623 14.8362 17.0318C15.1638 16.7989 15.5166 16.5945 15.8945 16.4185C16.2724 16.2425 16.6399 16.0817 16.9969 15.9361C17.0785 15.9475 17.1169 15.9403 17.1122 15.9147C17.1074 15.8891 17.1418 15.896 17.2153 15.9353C17.6501 15.7091 18.1565 15.4762 18.7345 15.2366C19.3101 14.9843 19.9408 14.8144 20.6264 14.7271C20.7066 14.6592 20.8106 14.6135 20.9387 14.5897C21.0643 14.5532 21.1976 14.5219 21.3384 14.4958C21.4792 14.4697 21.6137 14.4448 21.7417 14.421C21.8673 14.3845 21.9714 14.3387 22.0539 14.2837C22.1474 14.3591 22.2733 14.3954 22.4316 14.3925C22.5876 14.3768 22.7595 14.4112 22.9473 14.4956C23.0009 14.4989 22.9974 14.4797 22.9367 14.4379C22.8736 14.3834 22.8717 14.3374 22.9309 14.3C23.0974 14.2691 23.2517 14.2802 23.394 14.3333C23.5363 14.3864 23.6681 14.4547 23.7895 14.5381C23.9213 14.6064 24.0392 14.6706 24.143 14.7308C24.2597 14.7886 24.3756 14.8069 24.4909 14.7855C24.6322 14.905 24.7915 15.0145 24.9689 15.1141C25.1567 15.1985 25.3329 15.2916 25.4974 15.3935C25.6748 15.4931 25.8225 15.6114 25.9406 15.7484C26.0715 15.883 26.1548 16.0464 26.1903 16.2384C26.1918 16.3176 26.2257 16.3577 26.2921 16.3586C26.3585 16.3596 26.4104 16.3897 26.4479 16.4489C26.5485 16.9203 26.5476 17.3442 26.4452 17.7207C26.3556 18.0949 26.2165 18.4517 26.0278 18.7913C25.8368 19.118 25.6242 19.4355 25.39 19.7438C25.1686 20.0497 24.9699 20.3712 24.794 20.7084C24.9833 20.8719 25.1893 21.0191 25.4122 21.15C25.6455 21.2656 25.8789 21.3813 26.1122 21.497C26.3455 21.6127 26.5684 21.7435 26.7808 21.8895C27.0037 22.0204 27.1994 22.1827 27.3677 22.3767C27.4204 22.4464 27.5131 22.4821 27.6459 22.484C27.7127 22.6305 27.7936 22.7811 27.8885 22.9357C27.9938 23.075 28.0927 23.2156 28.1851 23.3574C28.2753 23.4864 28.3374 23.6073 28.3716 23.7201C28.4057 23.833 28.3915 23.9349 28.3289 24.026C28.428 24.0606 28.4947 24.1343 28.5288 24.2472C28.5606 24.3472 28.576 24.4304 28.5751 24.4968C28.3575 24.8947 28.2105 25.1735 28.1342 25.3334C28.0579 25.4932 28.0001 25.6098 27.9607 25.6833C27.9214 25.7568 27.8808 25.824 27.8391 25.8847C27.7974 25.9454 27.7012 26.0691 27.5504 26.256C26.9478 26.7914 26.306 27.2944 25.6252 27.7649C24.9547 28.2202 24.2333 28.5791 23.4609 28.8414C23.4135 28.9429 23.3305 29.0311 23.212 29.106C23.1086 29.1914 22.9837 29.2675 22.8372 29.3344C22.6906 29.4013 22.5301 29.4642 22.3556 29.523C22.194 29.5794 22.0451 29.6335 21.909 29.6852C21.8402 29.6715 21.7935 29.6338 21.7688 29.5722C21.7594 29.5209 21.7202 29.4885 21.6515 29.4747C21.6671 29.6307 21.611 29.7206 21.4829 29.7443C21.3701 29.7785 21.2181 29.7802 21.027 29.7494C20.8359 29.7186 20.6336 29.6634 20.4202 29.5837C20.2068 29.5041 20.0202 29.4261 19.8604 29.3498C19.8178 29.4769 19.7571 29.6139 19.6784 29.761C19.6125 29.9056 19.5331 30.013 19.4402 30.0832C19.2562 30.0908 19.1182 30.0965 19.0262 30.1003C18.947 30.1018 18.8761 30.148 18.8135 30.2391C18.7016 30.2068 18.6141 30.1635 18.5511 30.1089C18.4904 30.0672 18.4285 30.0191 18.3654 29.9646C18.3047 29.9229 18.2388 29.8887 18.1676 29.8622C18.0941 29.8228 17.9898 29.7958 17.8547 29.7811C17.8684 29.7124 17.8314 29.6199 17.7437 29.5038C17.6535 29.3748 17.5485 29.3082 17.4285 29.3039C17.4736 29.1896 17.4242 29.0664 17.2805 28.9341C17.1345 28.789 17.0104 28.62 16.9085 28.427C16.9046 28.335 16.8944 28.2442 16.8778 28.1546C16.8716 28.0498 16.8678 27.9578 16.8664 27.8786C16.8754 27.7842 16.8932 27.7015 16.9197 27.6304C16.9463 27.5592 17.002 27.5025 17.0868 27.4603C17.0432 27.2963 16.9623 27.1457 16.8442 27.0087C16.9428 26.8977 16.9995 26.7747 17.0142 26.6395C17.0265 26.4916 17.0324 26.3448 17.0319 26.1992C17.0442 26.0513 17.0641 25.9085 17.0916 25.771C17.1167 25.6207 17.1785 25.4901 17.2772 25.3791C17.2444 25.3454 17.2129 25.3182 17.1825 25.2973C17.1522 25.2764 17.1311 25.234 17.1192 25.17C17.2519 24.8143 17.3365 24.5205 17.373 24.2887C17.4071 24.044 17.4244 23.8156 17.4248 23.6037C17.4357 23.3765 17.4442 23.1366 17.4503 22.8839C17.4565 22.6311 17.5019 22.3049 17.5868 21.9051C17.5312 21.677 17.5189 21.4674 17.5497 21.2763C17.5805 21.0852 17.6125 20.9005 17.6456 20.7222C17.6892 20.5288 17.7124 20.3324 17.7152 20.1333C17.7181 19.9341 17.6701 19.7113 17.5715 19.4647C17.3586 19.5306 17.2128 19.6371 17.1341 19.7841C17.0682 19.9288 17.0426 20.1123 17.0573 20.3347C16.9611 20.4584 16.8233 20.5369 16.6441 20.5702C16.4625 20.5906 16.306 20.6394 16.1747 20.7168ZM25.3115 22.8571C24.7751 22.6784 24.2974 22.6014 23.8782 22.6261C23.4718 22.6485 23.0889 22.7261 22.7295 22.8589C22.3805 22.9765 22.0491 23.1174 21.7352 23.2815C21.4213 23.4457 21.1027 23.5842 20.7793 23.6971C20.6935 24.1632 20.6097 24.6754 20.5277 25.2335C20.4458 25.7916 20.3678 26.3358 20.2939 26.8659C20.743 26.7165 21.1477 26.5422 21.508 26.343C21.8684 26.1437 22.2136 25.9341 22.5436 25.714C22.8712 25.4811 23.1936 25.2559 23.5108 25.0382C23.8256 24.8077 24.1557 24.5876 24.5008 24.3779C24.5108 24.2172 24.5714 24.0801 24.6829 23.9668C24.7943 23.8534 24.9069 23.7465 25.0207 23.6459C25.1321 23.5326 25.2231 23.4164 25.2938 23.2974C25.3644 23.1783 25.3703 23.0316 25.3115 22.8571ZM22.8531 17.0953C22.0546 17.2168 21.2867 17.432 20.5494 17.7408C19.812 18.0496 19.2106 18.4127 18.745 18.83C19.0414 19.0002 19.3394 19.1436 19.6391 19.2602C19.9516 19.3745 20.2044 19.5594 20.3975 19.8149C20.9669 19.4578 21.4477 19.0509 21.8398 18.5942C22.2295 18.1246 22.5673 17.625 22.8531 17.0953ZM30.7634 26.8722C30.7027 26.8305 30.6472 26.7812 30.5969 26.7243C30.5443 26.6546 30.4945 26.5645 30.4475 26.454C30.2279 26.2696 30.0408 26.046 29.8862 25.7833C29.7316 25.5207 29.6078 25.2457 29.5148 24.9583C29.4194 24.6582 29.3561 24.3521 29.3247 24.0401C29.2934 23.7281 29.2848 23.4317 29.299 23.151C29.3137 23.0158 29.3208 22.8755 29.3203 22.7299C29.3392 22.4748 29.3593 22.226 29.3806 21.9837C29.3995 21.7286 29.4588 21.5124 29.5583 21.335C29.481 21.2037 29.459 21.0489 29.4921 20.8706C29.5253 20.6923 29.5608 20.5268 29.5987 20.3741C29.6172 20.3309 29.6305 20.2953 29.6386 20.2674C29.6442 20.2266 29.6511 20.1922 29.6592 20.1642C29.7297 19.6876 29.7975 19.2315 29.8624 18.7957C29.9377 18.3447 30.0102 17.9141 30.0799 17.5039C30.2054 16.7523 30.3205 16.0159 30.4252 15.2946C30.5427 14.571 30.6263 13.8073 30.676 13.0035C30.7641 12.9077 30.8443 12.8399 30.9163 12.8001C30.9396 12.7825 30.9692 12.7638 31.0052 12.7439C31.0413 12.724 31.0849 12.7093 31.1361 12.6998C31.4311 12.7908 31.7697 12.8671 32.1519 12.9286C32.5445 12.9751 32.8688 12.9745 33.1249 12.9271L33.5048 13.1546C33.7068 13.3158 33.8856 13.4946 34.0411 13.6909C34.2071 13.872 34.2954 14.1337 34.3059 14.4761C34.2504 14.6055 34.1994 14.6878 34.153 14.7229C34.1307 15.0316 34.0962 15.3095 34.0492 15.5566C34 15.7908 33.9495 16.0187 33.8978 16.2401C33.8381 16.4896 33.7848 16.7378 33.7379 16.9849C33.691 17.2319 33.6664 17.5278 33.6641 17.8726C33.6039 17.9764 33.5669 18.0627 33.5532 18.1315C33.5522 18.1979 33.5449 18.2655 33.5311 18.3342C33.5198 18.4158 33.5032 18.5049 33.4814 18.6017C33.4572 18.6856 33.4127 18.7667 33.3477 18.8449C33.37 19.2513 33.3537 19.592 33.2988 19.8671C33.2414 20.1293 33.1841 20.3915 33.1268 20.6538C33.0306 21.1351 32.9472 21.614 32.8766 22.0906C32.8036 22.5544 32.8066 23.0703 32.8854 23.6384C33.0319 23.5715 33.1692 23.5262 33.2972 23.5025C33.4636 23.4716 33.6284 23.4676 33.7915 23.4903C34.2097 23.1744 34.6829 22.941 35.2111 22.7902C35.7522 22.6369 36.2904 22.5041 36.8257 22.3916C37.2738 22.3086 37.6863 22.2122 38.0633 22.1026C38.2079 22.1685 38.3006 22.2043 38.3414 22.21C38.3798 22.2029 38.4439 22.191 38.5335 22.1744C38.5719 22.1673 38.6103 22.1602 38.6487 22.1531C38.6871 22.1459 38.7395 22.1429 38.8059 22.1438C39.0183 22.2898 39.2149 22.3858 39.3956 22.4318C39.5739 22.4649 39.765 22.4957 39.9689 22.5242C40.1472 22.5573 40.3203 22.5981 40.4882 22.6464C40.6665 22.6796 40.8431 22.7395 41.0181 22.8263L41.3725 23.7737C41.501 23.8955 41.5636 23.9832 41.5603 24.0368C41.5793 24.1392 41.5703 24.2336 41.5333 24.3199L41.618 24.5625C41.3842 24.6588 41.2348 24.746 41.1699 24.8243C41.1026 24.8897 41.0324 24.9756 40.9594 25.0818C40.8209 25.1207 40.6877 25.152 40.5597 25.1757C40.3036 25.2232 40.0483 25.3103 39.7936 25.4369C39.3835 25.3673 38.9479 25.3751 38.487 25.4606C38.3078 25.4938 38.1233 25.5346 37.9337 25.583C37.7568 25.629 37.5811 25.6814 37.4066 25.7403C37.2193 25.8015 37.032 25.8627 36.8447 25.9239C36.6551 25.9723 36.4642 26.0142 36.2722 26.0498C36.1233 26.1039 36.018 26.1433 35.9564 26.168C35.8947 26.1926 35.8343 26.2237 35.775 26.2612C35.3658 26.4827 34.9182 26.7113 34.4322 26.947C33.959 27.1804 33.4663 27.3446 32.9542 27.4395C32.1988 27.5795 31.5551 27.5001 31.023 27.2015C30.9505 27.0957 30.8978 27.0261 30.8651 26.9924C30.8324 26.9587 30.7985 26.9187 30.7634 26.8722ZM45.8172 13.6735C46.0168 13.4643 46.2166 13.1492 46.4167 12.7281C46.6143 12.2942 46.826 11.8643 47.0517 11.4384C47.2901 11.0102 47.5381 10.6332 47.7955 10.3074C48.0634 9.96638 48.3609 9.78543 48.6881 9.76452C48.9783 10.1875 49.1726 10.6282 49.2708 11.0867C49.3667 11.5324 49.4168 12.0529 49.4211 12.648C49.332 12.8101 49.2012 13.033 49.0286 13.3166C48.856 13.6002 48.6638 13.9206 48.4519 14.2777C48.2504 14.6196 48.0385 14.9767 47.8162 15.349C47.5938 15.7212 47.3819 16.0783 47.1804 16.4202C46.9918 16.7598 46.8239 17.069 46.677 17.3478C46.5428 17.6243 46.4568 17.8389 46.4189 17.9916C46.2752 18.2169 46.0818 18.5308 45.8386 18.9334C45.6082 19.3337 45.3686 19.7555 45.1197 20.1989C44.8708 20.6423 44.6271 21.0781 44.3887 21.5064C44.1607 21.9194 43.9732 22.2654 43.8262 22.5442C43.8253 22.6106 43.8552 22.6646 43.9159 22.7064C43.9766 22.7481 44.0256 22.7986 44.0631 22.8579C43.946 23.012 43.8853 23.149 43.8811 23.269C43.8745 23.3762 43.8882 23.4862 43.9224 23.599C43.9565 23.7119 43.9971 23.8236 44.0441 23.934C44.0887 24.0317 44.1164 24.1457 44.1273 24.2761C44.052 24.3696 43.9918 24.4734 43.9467 24.5877C43.9145 24.6996 43.8759 24.8127 43.8308 24.927C43.7962 25.0261 43.7424 25.1288 43.6694 25.235C43.6092 25.3389 43.521 25.4347 43.4049 25.5224C43.1313 25.5467 42.9065 25.5486 42.7306 25.5282C42.557 25.5207 42.3514 25.519 42.1139 25.5233C41.863 25.3844 41.6754 25.1941 41.5512 24.9523C41.4245 24.6976 41.3427 24.4347 41.3057 24.1635C41.2534 23.8818 41.2344 23.6006 41.2486 23.3199C41.2476 23.0287 41.2602 22.7748 41.2862 22.5581C41.4104 22.4424 41.405 22.3772 41.2698 22.3625C41.2878 22.1738 41.3501 22.0099 41.4568 21.871C41.5611 21.7192 41.605 21.5985 41.5883 21.5089C41.6519 21.3515 41.7856 21.1082 41.9894 20.7791C42.1909 20.4371 42.408 20.0725 42.6408 19.685C42.8864 19.2952 43.1215 18.9205 43.3462 18.5611C43.5685 18.1888 43.7399 17.8988 43.8603 17.6911C43.8992 17.472 44.0234 17.1775 44.2329 16.8076C44.4529 16.4225 44.6781 16.0299 44.9085 15.6296C45.1517 15.227 45.3664 14.8495 45.5527 14.4972C45.7518 14.1424 45.84 13.8679 45.8172 13.6735ZM59.7865 15.9511C59.815 16.1047 59.8987 16.2348 60.0376 16.3415C60.187 16.433 60.308 16.5496 60.4004 16.6914C60.5105 16.8564 60.5629 17.0321 60.5577 17.2185C60.5653 17.4024 60.5246 17.5755 60.4354 17.7377C60.3463 17.8999 60.2152 18.05 60.0422 18.188C59.8819 18.3237 59.6837 18.4332 59.4476 18.5167C59.2821 18.4812 59.1557 18.4781 59.0685 18.5075C58.994 18.5346 58.8805 18.5291 58.7278 18.4912C58.5258 18.6876 58.2726 18.8934 57.9682 19.1087C57.6742 19.3089 57.3677 19.4054 57.0486 19.3984C57.0291 19.5079 56.9618 19.5733 56.8466 19.5947C56.7442 19.6137 56.6908 19.6832 56.6866 19.8031C56.1783 19.99 55.6923 20.2258 55.2285 20.5104C54.7648 20.795 54.3175 21.0964 53.8865 21.4146C53.4531 21.7201 53.0337 22.0295 52.6283 22.343C52.2358 22.6542 51.85 22.9309 51.4712 23.1733C51.2825 23.1553 51.1172 23.1925 50.9755 23.285C50.8313 23.3647 50.6748 23.4136 50.506 23.4316C50.5373 23.3861 50.539 23.3593 50.511 23.3512C50.483 23.3432 50.4434 23.3439 50.3922 23.3534C50.3386 23.3501 50.2798 23.3544 50.2158 23.3662C50.1622 23.3629 50.1127 23.3456 50.0671 23.3143C49.9097 23.2508 49.7942 23.1994 49.7207 23.16C49.6344 23.123 49.5697 23.0953 49.5265 23.0768C49.4706 23.0607 49.4134 23.0382 49.3551 23.0093C49.2968 22.9804 49.2157 22.9358 49.1118 22.8756C49.1393 22.7381 49.1523 22.6297 49.1509 22.5505C49.1343 22.4609 49.1136 22.3853 49.089 22.3236C49.0619 22.2492 49.0349 22.1748 49.0079 22.1003C48.968 22.0282 48.9426 21.927 48.9317 21.7966C49.5528 21.218 50.1085 20.7508 50.5988 20.3951C51.0866 20.0266 51.5688 19.6989 52.0454 19.4119C52.5219 19.1249 53.0136 18.8484 53.5205 18.5823C54.0378 18.3011 54.6288 17.9531 55.2935 17.5386C54.9682 17.4267 54.5557 17.3443 54.0559 17.2913C53.5689 17.2359 53.0731 17.1688 52.5685 17.0902C52.0744 16.9964 51.6116 16.857 51.18 16.6722C50.7485 16.4873 50.4307 16.2019 50.2268 15.8159C50.0452 15.8363 49.8662 15.7636 49.6897 15.5976C49.5261 15.4293 49.4334 15.2148 49.4115 14.954C49.5253 14.8534 49.6251 14.7488 49.7109 14.6402C49.8072 14.5165 49.9338 14.4135 50.0907 14.3315C50.2268 14.2798 50.4084 14.2594 50.6355 14.2702C50.8755 14.2787 51.1318 14.3041 51.4045 14.3462C51.6899 14.386 51.983 14.431 52.2836 14.4812C52.5971 14.5291 52.8878 14.5613 53.1557 14.5778C53.4236 14.5944 53.7095 14.601 54.0135 14.5976C54.3302 14.5919 54.6261 14.6165 54.9012 14.6715C55.0259 14.7013 55.1338 14.7475 55.2248 14.8101C55.3263 14.8575 55.4371 14.8834 55.557 14.8876C55.7946 14.8833 56.0521 14.915 56.3295 14.9828C56.6173 15.0354 56.9076 15.1008 57.2001 15.179C57.4927 15.2572 57.7801 15.343 58.0623 15.4363C58.3548 15.5145 58.6247 15.5771 58.8717 15.624C58.8732 15.7032 58.9742 15.7838 59.1748 15.8658C59.3754 15.9478 59.5793 15.9762 59.7865 15.9511Z" fill="white"/>
</g>
</svg>
