<svg width="200" height="200" viewBox="0 0 200 200" fill="none" xmlns="http://www.w3.org/2000/svg">
<g id="Projects">
<path id="PROJECTS" d="M44.94 175.48C44.94 176.293 44.7533 177.04 44.38 177.72C44.0067 178.387 43.4333 178.927 42.66 179.34C41.8867 179.753 40.9267 179.96 39.78 179.96H37.66V185H34.24V170.96H39.78C40.9 170.96 41.8467 171.153 42.62 171.54C43.3933 171.927 43.9733 172.46 44.36 173.14C44.7467 173.82 44.94 174.6 44.94 175.48ZM39.52 177.24C40.1733 177.24 40.66 177.087 40.98 176.78C41.3 176.473 41.46 176.04 41.46 175.48C41.46 174.92 41.3 174.487 40.98 174.18C40.66 173.873 40.1733 173.72 39.52 173.72H37.66V177.24H39.52ZM57.8805 185L54.9605 179.7H54.1405V185H50.7205V170.96H56.4605C57.5671 170.96 58.5071 171.153 59.2805 171.54C60.0671 171.927 60.6538 172.46 61.0405 173.14C61.4271 173.807 61.6205 174.553 61.6205 175.38C61.6205 176.313 61.3538 177.147 60.8205 177.88C60.3005 178.613 59.5271 179.133 58.5005 179.44L61.7405 185H57.8805ZM54.1405 177.28H56.2605C56.8871 177.28 57.3538 177.127 57.6605 176.82C57.9805 176.513 58.1405 176.08 58.1405 175.52C58.1405 174.987 57.9805 174.567 57.6605 174.26C57.3538 173.953 56.8871 173.8 56.2605 173.8H54.1405V177.28ZM74.4073 185.14C73.0873 185.14 71.874 184.833 70.7673 184.22C69.674 183.607 68.8007 182.753 68.1473 181.66C67.5073 180.553 67.1873 179.313 67.1873 177.94C67.1873 176.567 67.5073 175.333 68.1473 174.24C68.8007 173.147 69.674 172.293 70.7673 171.68C71.874 171.067 73.0873 170.76 74.4073 170.76C75.7273 170.76 76.934 171.067 78.0273 171.68C79.134 172.293 80.0007 173.147 80.6273 174.24C81.2673 175.333 81.5873 176.567 81.5873 177.94C81.5873 179.313 81.2673 180.553 80.6273 181.66C79.9873 182.753 79.1207 183.607 78.0273 184.22C76.934 184.833 75.7273 185.14 74.4073 185.14ZM74.4073 182.02C75.5273 182.02 76.4207 181.647 77.0873 180.9C77.7673 180.153 78.1073 179.167 78.1073 177.94C78.1073 176.7 77.7673 175.713 77.0873 174.98C76.4207 174.233 75.5273 173.86 74.4073 173.86C73.274 173.86 72.3673 174.227 71.6873 174.96C71.0207 175.693 70.6873 176.687 70.6873 177.94C70.6873 179.18 71.0207 180.173 71.6873 180.92C72.3673 181.653 73.274 182.02 74.4073 182.02ZM96.29 170.96V180.52C96.29 182 95.87 183.14 95.03 183.94C94.2033 184.74 93.0833 185.14 91.67 185.14C90.19 185.14 89.0033 184.72 88.11 183.88C87.2167 183.04 86.77 181.847 86.77 180.3H90.17C90.17 180.887 90.29 181.333 90.53 181.64C90.77 181.933 91.1167 182.08 91.57 182.08C91.9833 182.08 92.3033 181.947 92.53 181.68C92.7567 181.413 92.87 181.027 92.87 180.52V170.96H96.29ZM106.473 173.7V176.54H111.053V179.18H106.473V182.26H111.653V185H103.053V170.96H111.653V173.7H106.473ZM117.293 177.96C117.293 176.573 117.593 175.34 118.193 174.26C118.793 173.167 119.626 172.32 120.693 171.72C121.773 171.107 122.993 170.8 124.353 170.8C126.019 170.8 127.446 171.24 128.633 172.12C129.819 173 130.613 174.2 131.013 175.72H127.253C126.973 175.133 126.573 174.687 126.053 174.38C125.546 174.073 124.966 173.92 124.313 173.92C123.259 173.92 122.406 174.287 121.753 175.02C121.099 175.753 120.773 176.733 120.773 177.96C120.773 179.187 121.099 180.167 121.753 180.9C122.406 181.633 123.259 182 124.313 182C124.966 182 125.546 181.847 126.053 181.54C126.573 181.233 126.973 180.787 127.253 180.2H131.013C130.613 181.72 129.819 182.92 128.633 183.8C127.446 184.667 126.019 185.1 124.353 185.1C122.993 185.1 121.773 184.8 120.693 184.2C119.626 183.587 118.793 182.74 118.193 181.66C117.593 180.58 117.293 179.347 117.293 177.96ZM147.207 170.96V173.7H143.487V185H140.067V173.7H136.347V170.96H147.207ZM158.004 185.14C156.977 185.14 156.057 184.973 155.244 184.64C154.43 184.307 153.777 183.813 153.284 183.16C152.804 182.507 152.55 181.72 152.524 180.8H156.164C156.217 181.32 156.397 181.72 156.704 182C157.01 182.267 157.41 182.4 157.904 182.4C158.41 182.4 158.81 182.287 159.104 182.06C159.397 181.82 159.544 181.493 159.544 181.08C159.544 180.733 159.424 180.447 159.184 180.22C158.957 179.993 158.67 179.807 158.324 179.66C157.99 179.513 157.51 179.347 156.884 179.16C155.977 178.88 155.237 178.6 154.664 178.32C154.09 178.04 153.597 177.627 153.184 177.08C152.77 176.533 152.564 175.82 152.564 174.94C152.564 173.633 153.037 172.613 153.984 171.88C154.93 171.133 156.164 170.76 157.684 170.76C159.23 170.76 160.477 171.133 161.424 171.88C162.37 172.613 162.877 173.64 162.944 174.96H159.244C159.217 174.507 159.05 174.153 158.744 173.9C158.437 173.633 158.044 173.5 157.564 173.5C157.15 173.5 156.817 173.613 156.564 173.84C156.31 174.053 156.184 174.367 156.184 174.78C156.184 175.233 156.397 175.587 156.824 175.84C157.25 176.093 157.917 176.367 158.824 176.66C159.73 176.967 160.464 177.26 161.024 177.54C161.597 177.82 162.09 178.227 162.504 178.76C162.917 179.293 163.124 179.98 163.124 180.82C163.124 181.62 162.917 182.347 162.504 183C162.104 183.653 161.517 184.173 160.744 184.56C159.97 184.947 159.057 185.14 158.004 185.14Z" fill="#D4CEF8"/>
<g id="Group 35">
<g id="Group 33">
<path id="Vector" d="M82.9951 146.318H179.482V56.0154L82.9951 56.0154L82.9951 146.318Z" fill="#D4CEF8"/>
<path id="Vector_2" d="M179.482 147.343H83.0154C82.7461 147.343 82.4878 147.236 82.2974 147.046C82.107 146.856 82 146.597 82 146.328V56.0154C82 55.7461 82.107 55.4878 82.2974 55.2974C82.4878 55.107 82.7461 55 83.0154 55H179.482C179.751 55 180.009 55.107 180.2 55.2974C180.39 55.4878 180.497 55.7461 180.497 56.0154V146.328C180.497 146.597 180.39 146.856 180.2 147.046C180.009 147.236 179.751 147.343 179.482 147.343ZM84.0309 145.313H178.466V57.0309H84.0309V145.313Z" fill="black"/>
<path id="Vector_3" d="M179.482 66.2002H101.009C100.74 66.2002 100.481 66.0933 100.291 65.9028C100.1 65.7124 99.9935 65.4541 99.9935 65.1848C99.9935 64.9155 100.1 64.6572 100.291 64.4668C100.481 64.2764 100.74 64.1694 101.009 64.1694H179.482C179.751 64.1694 180.009 64.2764 180.2 64.4668C180.39 64.6572 180.497 64.9155 180.497 65.1848C180.497 65.4541 180.39 65.7124 180.2 65.9028C180.009 66.0933 179.751 66.2002 179.482 66.2002Z" fill="black"/>
</g>
<path id="Vector_4" d="M165 16.0521V146.67C165 148.349 164.248 149.959 162.91 151.146C161.572 152.333 159.757 153 157.865 153H40.1351C38.2428 153 36.4279 152.333 35.0898 151.146C33.7517 149.959 33 148.349 33 146.67V16.0431C33 13.6447 34.0739 11.3446 35.9855 9.64869C37.897 7.95279 40.4897 7.00004 43.193 7.00004H154.776C156.118 6.99647 157.448 7.22803 158.689 7.68146C159.93 8.13488 161.057 8.80123 162.007 9.64226C162.957 10.4833 163.711 11.4825 164.224 12.5824C164.738 13.6824 165.001 14.8615 165 16.0521Z" fill="white"/>
<path id="Vector_5" d="M157.887 153H40.154C37.9914 153 35.9174 152.242 34.3882 150.893C32.8591 149.543 32 147.713 32 145.805V15.8935C32 13.2696 33.1812 10.7531 35.2838 8.89775C37.3864 7.04235 40.2382 6 43.2117 6H154.788C157.762 6 160.614 7.04235 162.716 8.89775C164.819 10.7531 166 13.2696 166 15.8935V145.814C165.997 147.714 165.143 149.537 163.623 150.883C162.103 152.229 160.041 152.991 157.887 153ZM43.2321 7.78083C40.7992 7.78083 38.4659 8.63367 36.7456 10.1517C35.0253 11.6698 34.0589 13.7287 34.0589 15.8755V145.814C34.0589 147.245 34.7032 148.618 35.85 149.63C36.9969 150.642 38.5524 151.21 40.1743 151.21H157.887C159.509 151.21 161.064 150.642 162.211 149.63C163.358 148.618 164.002 147.245 164.002 145.814V15.9025C164.002 13.7557 163.036 11.6968 161.316 10.1787C159.595 8.66065 157.262 7.80781 154.829 7.80781L43.2321 7.78083Z" fill="black"/>
<path id="Vector_6" d="M164.733 17.1698V21.658H33.2448V17.1698C33.2448 14.4767 34.3147 11.8939 36.219 9.98956C38.1233 8.08525 40.7061 7.01543 43.3992 7.01543H154.548C155.884 7.01142 157.208 7.2711 158.444 7.77961C159.679 8.28812 160.802 9.03545 161.748 9.97877C162.694 10.9221 163.445 12.0428 163.957 13.2768C164.47 14.5108 164.733 15.8337 164.733 17.1698Z" fill="white"/>
<path id="Vector_7" d="M164.733 22.6734H33.2448C32.9755 22.6734 32.7172 22.5664 32.5268 22.376C32.3364 22.1856 32.2294 21.9273 32.2294 21.658V17.1698C32.2294 14.2074 33.4062 11.3663 35.5009 9.27155C37.5957 7.17681 40.4368 6 43.3992 6H154.548C157.511 6 160.352 7.17681 162.447 9.27155C164.541 11.3663 165.718 14.2074 165.718 17.1698V21.658C165.718 21.9221 165.615 22.1758 165.432 22.3654C165.248 22.555 164.997 22.6655 164.733 22.6734ZM34.2603 20.6425H163.718V17.1698C163.718 14.746 162.755 12.4215 161.041 10.7076C159.327 8.9937 157.003 8.03086 154.579 8.03086H43.4195C40.9957 8.03086 38.6712 8.9937 36.9573 10.7076C35.2434 12.4215 34.2806 14.746 34.2806 17.1698L34.2603 20.6425Z" fill="black"/>
<path id="Vector_8" d="M164.733 21.658H33.2448V60.4678H164.733V21.658Z" fill="#D4CEF8"/>
<path id="Vector_9" d="M164.733 61.4832H33.2448C32.9755 61.4832 32.7172 61.3762 32.5268 61.1858C32.3364 60.9954 32.2294 60.7371 32.2294 60.4678V21.6579C32.2294 21.3886 32.3364 21.1304 32.5268 20.9399C32.7172 20.7495 32.9755 20.6425 33.2448 20.6425H164.733C165.003 20.6425 165.261 20.7495 165.451 20.9399C165.642 21.1304 165.749 21.3886 165.749 21.6579V60.4678C165.749 60.7371 165.642 60.9954 165.451 61.1858C165.261 61.3762 165.003 61.4832 164.733 61.4832ZM34.2603 59.4523H163.718V22.6734H34.2603V59.4523Z" fill="black"/>
<path id="Vector_10" d="M66.7236 101.004C74.6086 101.004 81.0006 94.6118 81.0006 86.7269C81.0006 78.8419 74.6086 72.4499 66.7236 72.4499C58.8387 72.4499 52.4467 78.8419 52.4467 86.7269C52.4467 94.6118 58.8387 101.004 66.7236 101.004Z" fill="#FFBC0E"/>
<path id="Vector_11" d="M66.7237 101.979C63.6965 101.979 60.7375 101.08 58.2214 99.3971C55.7052 97.7141 53.7452 95.3221 52.5896 92.5242C51.434 89.7264 51.1347 86.6485 51.7297 83.6804C52.3247 80.7123 53.7872 77.9876 55.932 75.8513C58.0768 73.7151 60.8074 72.2634 63.7778 71.6803C66.7482 71.0971 69.8249 71.4087 72.6182 72.5755C75.4114 73.7423 77.7955 75.7118 79.4685 78.2346C81.1415 80.7575 82.0281 83.7201 82.0161 86.7472C81.9946 90.7908 80.3747 94.6617 77.5097 97.5153C74.6447 100.369 70.7673 101.973 66.7237 101.979ZM66.7237 73.4349C64.0982 73.4349 61.5318 74.2142 59.3497 75.6741C57.1675 77.134 55.4678 79.2088 54.4659 81.6356C53.464 84.0624 53.2049 86.732 53.7216 89.3061C54.2382 91.8802 55.5073 94.2431 57.3681 96.0953C59.2289 97.9475 61.5975 99.2057 64.174 99.7105C66.7505 100.215 69.4189 99.944 71.841 98.9309C74.2631 97.9178 76.3301 96.2086 77.7799 94.0197C79.2298 91.8309 79.9973 89.2609 79.9852 86.6355C79.9558 83.1368 78.5459 79.7912 76.0624 77.3267C73.5788 74.8621 70.2225 73.478 66.7237 73.4755V73.4349Z" fill="black"/>
<path id="Vector_12" d="M145.521 77.1514H95.6533C95.384 77.1514 95.1257 77.0444 94.9353 76.854C94.7449 76.6635 94.6379 76.4053 94.6379 76.1359C94.6379 75.8666 94.7449 75.6084 94.9353 75.4179C95.1257 75.2275 95.384 75.1205 95.6533 75.1205H145.521C145.791 75.1205 146.049 75.2275 146.239 75.4179C146.43 75.6084 146.537 75.8666 146.537 76.1359C146.537 76.4053 146.43 76.6635 146.239 76.854C146.049 77.0444 145.791 77.1514 145.521 77.1514Z" fill="#DFEAEF"/>
<path id="Vector_13" d="M145.521 87.7626H95.6533C95.384 87.7626 95.1257 87.6557 94.9353 87.4652C94.7449 87.2748 94.6379 87.0165 94.6379 86.7472C94.6379 86.4779 94.7449 86.2196 94.9353 86.0292C95.1257 85.8388 95.384 85.7318 95.6533 85.7318H145.521C145.791 85.7318 146.049 85.8388 146.239 86.0292C146.43 86.2196 146.537 86.4779 146.537 86.7472C146.537 87.0165 146.43 87.2748 146.239 87.4652C146.049 87.6557 145.791 87.7626 145.521 87.7626Z" fill="#DFEAEF"/>
<path id="Vector_14" d="M129.741 98.3333H120.602C120.333 98.3333 120.075 98.2263 119.884 98.0359C119.694 97.8454 119.587 97.5871 119.587 97.3178C119.587 97.0485 119.694 96.7902 119.884 96.5998C120.075 96.4094 120.333 96.3024 120.602 96.3024H129.741C130.011 96.3024 130.269 96.4094 130.459 96.5998C130.65 96.7902 130.757 97.0485 130.757 97.3178C130.757 97.5871 130.65 97.8454 130.459 98.0359C130.269 98.2263 130.011 98.3333 129.741 98.3333Z" fill="#DFEAEF"/>
<path id="Vector_15" d="M112.692 98.3333H95.6533C95.384 98.3333 95.1257 98.2263 94.9353 98.0359C94.7449 97.8454 94.6379 97.5871 94.6379 97.3178C94.6379 97.0485 94.7449 96.7902 94.9353 96.5998C95.1257 96.4094 95.384 96.3024 95.6533 96.3024H112.692C112.962 96.3024 113.22 96.4094 113.41 96.5998C113.601 96.7902 113.708 97.0485 113.708 97.3178C113.708 97.5871 113.601 97.8454 113.41 98.0359C113.22 98.2263 112.962 98.3333 112.692 98.3333Z" fill="#DFEAEF"/>
<path id="Vector_16" d="M135.303 141.569C143.188 141.569 149.58 135.177 149.58 127.292C149.58 119.407 143.188 113.015 135.303 113.015C127.418 113.015 121.026 119.407 121.026 127.292C121.026 135.177 127.418 141.569 135.303 141.569Z" fill="#FFBC0E"/>
<path id="Vector_17" d="M135.303 142.585C132.278 142.587 129.32 141.692 126.804 140.013C124.288 138.333 122.326 135.946 121.167 133.152C120.008 130.357 119.704 127.282 120.293 124.315C120.882 121.348 122.337 118.622 124.475 116.483C126.614 114.343 129.339 112.885 132.305 112.295C135.272 111.704 138.347 112.006 141.142 113.163C143.937 114.32 146.326 116.28 148.007 118.795C149.688 121.31 150.585 124.267 150.585 127.292C150.579 131.345 148.968 135.23 146.103 138.096C143.239 140.963 139.355 142.577 135.303 142.585ZM135.303 114.031C132.679 114.029 130.114 114.805 127.932 116.261C125.75 117.717 124.049 119.787 123.043 122.21C122.038 124.633 121.774 127.3 122.284 129.873C122.795 132.447 124.057 134.81 125.911 136.666C127.766 138.522 130.129 139.786 132.701 140.298C135.274 140.811 137.941 140.549 140.365 139.545C142.789 138.542 144.861 136.842 146.318 134.661C147.776 132.48 148.554 129.916 148.554 127.292C148.549 123.779 147.151 120.41 144.667 117.925C142.184 115.439 138.816 114.039 135.303 114.031Z" fill="black"/>
<path id="Vector_18" d="M102.325 123.069H52.4466C52.1773 123.069 51.9191 122.962 51.7286 122.772C51.5382 122.581 51.4312 122.323 51.4312 122.054C51.4312 121.784 51.5382 121.526 51.7286 121.336C51.9191 121.145 52.1773 121.038 52.4466 121.038H102.325C102.594 121.038 102.852 121.145 103.043 121.336C103.233 121.526 103.34 121.784 103.34 122.054C103.34 122.323 103.233 122.581 103.043 122.772C102.852 122.962 102.594 123.069 102.325 123.069Z" fill="#DFEAEF"/>
<path id="Vector_19" d="M102.325 133.66H52.4466C52.1773 133.66 51.9191 133.553 51.7286 133.363C51.5382 133.172 51.4312 132.914 51.4312 132.645C51.4312 132.375 51.5382 132.117 51.7286 131.927C51.9191 131.736 52.1773 131.629 52.4466 131.629H102.325C102.594 131.629 102.852 131.736 103.043 131.927C103.233 132.117 103.34 132.375 103.34 132.645C103.34 132.914 103.233 133.172 103.043 133.363C102.852 133.553 102.594 133.66 102.325 133.66Z" fill="#DFEAEF"/>
<path id="Vector_20" d="M89.1748 144.251H52.4466C52.1773 144.251 51.9191 144.144 51.7286 143.954C51.5382 143.763 51.4312 143.505 51.4312 143.236C51.4312 142.966 51.5382 142.708 51.7286 142.518C51.9191 142.327 52.1773 142.22 52.4466 142.22H89.1748C89.4442 142.22 89.7024 142.327 89.8929 142.518C90.0833 142.708 90.1903 142.966 90.1903 143.236C90.1903 143.505 90.0833 143.763 89.8929 143.954C89.7024 144.144 89.4442 144.251 89.1748 144.251Z" fill="#DFEAEF"/>
<path id="Vector_21" d="M33.2448 60.4678L77.3857 28.4309L104.173 51.0141L127.528 32.0154L164.733 60.4678H33.2448Z" fill="#FFBC0E"/>
<path id="Vector_22" d="M164.733 61.4832H33.2448C33.0299 61.484 32.8203 61.4166 32.6462 61.2907C32.4721 61.1647 32.3424 60.9868 32.2758 60.7825C32.2092 60.5782 32.2091 60.358 32.2756 60.1537C32.3421 59.9493 32.4717 59.7713 32.6457 59.6453L76.7967 27.6084C76.9752 27.4693 77.1949 27.3937 77.4212 27.3937C77.6475 27.3937 77.8673 27.4693 78.0457 27.6084L104.183 49.6433L126.888 31.1726C127.067 31.0309 127.289 30.9539 127.518 30.9539C127.746 30.9539 127.968 31.0309 128.147 31.1726L165.353 59.6047C165.52 59.7343 165.642 59.9128 165.703 60.1154C165.763 60.3179 165.759 60.5343 165.691 60.7344C165.623 60.9345 165.494 61.1084 165.322 61.2317C165.151 61.355 164.945 61.4217 164.733 61.4223V61.4832ZM36.3724 59.4524H161.738L127.548 33.305L104.813 51.8062C104.63 51.9581 104.4 52.0414 104.163 52.0414C103.925 52.0414 103.695 51.9581 103.513 51.8062L77.3451 29.7205L36.3724 59.4524Z" fill="black"/>
<path id="Vector_23" d="M109.94 56.8528C109.702 56.8505 109.472 56.7642 109.291 56.6091L103.523 51.796C103.42 51.7106 103.335 51.6059 103.273 51.4878C103.211 51.3696 103.173 51.2404 103.16 51.1074C103.148 50.9745 103.162 50.8404 103.202 50.7129C103.241 50.5854 103.306 50.4669 103.391 50.3642C103.476 50.2615 103.581 50.1767 103.699 50.1145C103.817 50.0523 103.946 50.014 104.079 50.0017C104.212 49.9894 104.346 50.0035 104.474 50.043C104.601 50.0826 104.72 50.1469 104.823 50.2322L110.6 55.0555C110.703 55.1415 110.787 55.2467 110.848 55.3652C110.909 55.4837 110.947 55.6132 110.958 55.7461C110.969 55.8791 110.954 56.013 110.914 56.1402C110.874 56.2674 110.808 56.3853 110.722 56.4873C110.627 56.6019 110.507 56.6941 110.372 56.7573C110.237 56.8205 110.09 56.8531 109.94 56.8528Z" fill="black"/>
<path id="Vector_24" d="M43.8257 15.6974C44.9585 15.6974 45.8768 14.779 45.8768 13.6462C45.8768 12.5134 44.9585 11.595 43.8257 11.595C42.6928 11.595 41.7745 12.5134 41.7745 13.6462C41.7745 14.779 42.6928 15.6974 43.8257 15.6974Z" fill="#F56132"/>
<path id="Vector_25" d="M43.8256 11.6052C44.2273 11.6052 44.6199 11.7243 44.9539 11.9475C45.2879 12.1706 45.5482 12.4878 45.7019 12.8589C45.8556 13.23 45.8958 13.6383 45.8175 14.0323C45.7391 14.4262 45.5457 14.7881 45.2617 15.0721C44.9776 15.3561 44.6158 15.5495 44.2218 15.6279C43.8279 15.7063 43.4195 15.666 43.0484 15.5123C42.6774 15.3586 42.3602 15.0983 42.137 14.7643C41.9139 14.4304 41.7948 14.0377 41.7948 13.6361C41.7948 13.0974 42.0087 12.5809 42.3896 12.2C42.7704 11.8192 43.287 11.6052 43.8256 11.6052ZM43.8256 10.082C43.1154 10.0821 42.4212 10.2931 41.8311 10.6883C41.241 11.0835 40.7816 11.6452 40.5112 12.3019C40.2408 12.9587 40.1716 13.681 40.3124 14.3771C40.4532 15.0732 40.7976 15.7119 41.302 16.2119C41.8063 16.712 42.4479 17.0509 43.1452 17.1858C43.8425 17.3206 44.5642 17.2453 45.2186 16.9693C45.873 16.6933 46.4307 16.2292 46.8209 15.6357C47.2111 15.0423 47.4161 14.3463 47.4101 13.6361C47.4074 12.6872 47.0286 11.778 46.3566 11.108C45.6847 10.438 44.7745 10.0617 43.8256 10.0617V10.082Z" fill="black"/>
<path id="Vector_26" d="M52.4466 15.6974C53.5795 15.6974 54.4978 14.779 54.4978 13.6462C54.4978 12.5134 53.5795 11.595 52.4466 11.595C51.3138 11.595 50.3955 12.5134 50.3955 13.6462C50.3955 14.779 51.3138 15.6974 52.4466 15.6974Z" fill="#FFBC0E"/>
<path id="Vector_27" d="M52.4466 11.6052C52.8483 11.6052 53.241 11.7243 53.5749 11.9475C53.9089 12.1706 54.1692 12.4878 54.3229 12.8589C54.4766 13.23 54.5169 13.6383 54.4385 14.0323C54.3601 14.4262 54.1667 14.7881 53.8827 15.0721C53.5987 15.3561 53.2368 15.5495 52.8428 15.6279C52.4489 15.7063 52.0406 15.666 51.6695 15.5123C51.2984 15.3586 50.9812 15.0983 50.758 14.7643C50.5349 14.4304 50.4158 14.0377 50.4158 13.6361C50.4158 13.0974 50.6297 12.5809 51.0106 12.2C51.3915 11.8192 51.908 11.6052 52.4466 11.6052ZM52.4466 10.082C51.7364 10.0821 51.0422 10.2931 50.4521 10.6883C49.862 11.0835 49.4026 11.6452 49.1322 12.3019C48.8618 12.9587 48.7926 13.681 48.9334 14.3771C49.0742 15.0732 49.4187 15.7119 49.923 16.2119C50.4274 16.712 51.0689 17.0509 51.7662 17.1858C52.4635 17.3206 53.1852 17.2453 53.8396 16.9693C54.494 16.6933 55.0517 16.2292 55.4419 15.6357C55.8321 15.0423 56.0372 14.3463 56.0311 13.6361C56.0284 12.6872 55.6496 11.778 54.9777 11.108C54.3058 10.438 53.3955 10.0617 52.4466 10.0617V10.082Z" fill="black"/>
<path id="Vector_28" d="M61.0677 15.6974C62.2005 15.6974 63.1188 14.779 63.1188 13.6462C63.1188 12.5134 62.2005 11.595 61.0677 11.595C59.9348 11.595 59.0165 12.5134 59.0165 13.6462C59.0165 14.779 59.9348 15.6974 61.0677 15.6974Z" fill="#70CC40"/>
<path id="Vector_29" d="M61.0677 11.6052C61.4693 11.6052 61.862 11.7243 62.196 11.9475C62.5299 12.1706 62.7902 12.4878 62.944 12.8589C63.0977 13.23 63.1379 13.6383 63.0595 14.0323C62.9812 14.4262 62.7877 14.7881 62.5037 15.0721C62.2197 15.3561 61.8578 15.5495 61.4639 15.6279C61.0699 15.7063 60.6616 15.666 60.2905 15.5123C59.9194 15.3586 59.6022 15.0983 59.3791 14.7643C59.1559 14.4304 59.0368 14.0377 59.0368 13.6361C59.0368 13.0974 59.2508 12.5809 59.6316 12.2C60.0125 11.8192 60.5291 11.6052 61.0677 11.6052ZM61.0677 10.082C60.3574 10.0821 59.6632 10.2931 59.0731 10.6883C58.483 11.0835 58.0236 11.6452 57.7532 12.3019C57.4829 12.9587 57.4137 13.681 57.5545 14.3771C57.6953 15.0732 58.0397 15.7119 58.544 16.2119C59.0484 16.712 59.6899 17.0509 60.3872 17.1858C61.0846 17.3206 61.8062 17.2453 62.4606 16.9693C63.1151 16.6933 63.6727 16.2292 64.0629 15.6357C64.4531 15.0423 64.6582 14.3463 64.6522 13.6361C64.6495 12.6872 64.2706 11.778 63.5987 11.108C62.9268 10.438 62.0166 10.0617 61.0677 10.0617V10.082Z" fill="black"/>
<path id="Vector_30" d="M25.1112 89.5599L45.5823 84.1274C45.7003 84.0971 45.8241 84.098 45.9415 84.1301C46.059 84.1623 46.166 84.2244 46.2521 84.3105C46.3382 84.3966 46.4004 84.5037 46.4325 84.6211C46.4646 84.7386 46.4656 84.8624 46.4353 84.9803L41.0027 105.451C40.9733 105.571 40.9122 105.681 40.8259 105.77C40.7396 105.858 40.6311 105.922 40.5118 105.954C40.3925 105.986 40.2668 105.985 40.1478 105.952C40.0287 105.919 39.9207 105.855 39.835 105.766L35.3975 101.329L26.3907 110.326C26.326 110.396 26.2475 110.452 26.1601 110.49C26.0727 110.528 25.9783 110.548 25.8829 110.548C25.7875 110.548 25.6932 110.528 25.6058 110.49C25.5184 110.452 25.4399 110.396 25.3752 110.326L20.2067 105.157C20.1365 105.092 20.0805 105.014 20.0422 104.926C20.0039 104.839 19.9842 104.745 19.9842 104.649C19.9842 104.554 20.0039 104.459 20.0422 104.372C20.0805 104.285 20.1365 104.206 20.2067 104.142L29.2034 95.1346L24.766 90.6972C24.6849 90.6088 24.6283 90.5007 24.6017 90.3838C24.5751 90.2668 24.5795 90.1449 24.6143 90.0301C24.6492 89.9153 24.7133 89.8116 24.8004 89.7292C24.8876 89.6467 24.9947 89.5884 25.1112 89.5599Z" fill="white"/>
<path id="Vector_31" d="M25.8931 111.554C25.6681 111.554 25.4453 111.509 25.2379 111.422C25.0304 111.335 24.8424 111.207 24.6847 111.046L19.506 105.868C19.3458 105.71 19.2185 105.522 19.1316 105.314C19.0447 105.107 19 104.884 19 104.659C19 104.435 19.0447 104.212 19.1316 104.004C19.2185 103.797 19.3458 103.609 19.506 103.451L27.792 95.1651L24.0653 91.4385C23.8512 91.2265 23.697 90.9616 23.6185 90.6706C23.54 90.3797 23.54 90.0732 23.6184 89.7823C23.6968 89.4913 23.8509 89.2264 24.0649 89.0143C24.279 88.8022 24.5454 88.6507 24.837 88.575L45.3082 83.1526C45.5975 83.0776 45.9013 83.0794 46.1897 83.158C46.4781 83.2365 46.7409 83.389 46.9522 83.6003C47.1636 83.8116 47.316 84.0745 47.3946 84.3628C47.4731 84.6512 47.4749 84.9551 47.4 85.2444L41.9775 105.715C41.9019 106.007 41.7503 106.274 41.5382 106.488C41.3261 106.702 41.0612 106.856 40.7702 106.934C40.4793 107.013 40.1728 107.012 39.8819 106.934C39.591 106.855 39.326 106.701 39.114 106.487L35.3874 102.761L27.1015 111.046C26.9438 111.207 26.7558 111.335 26.5483 111.422C26.3409 111.509 26.1181 111.554 25.8931 111.554ZM21.1612 104.659L25.8931 109.391L34.6664 100.608C34.7608 100.513 34.8731 100.437 34.9969 100.386C35.1206 100.334 35.2533 100.307 35.3874 100.307C35.5214 100.307 35.6542 100.334 35.7779 100.386C35.9016 100.437 36.0139 100.513 36.1083 100.608L40.1701 104.67L45.3082 85.2646L25.8931 90.3926L29.9548 94.4543C30.0489 94.5492 30.1234 94.6617 30.1739 94.7854C30.2245 94.9092 30.2501 95.0416 30.2493 95.1753C30.2501 95.3089 30.2245 95.4414 30.1739 95.5651C30.1234 95.6888 30.0489 95.8013 29.9548 95.8962L21.1612 104.659Z" fill="black"/>
<g id="Group 32">
<path id="Vector_32" d="M69.1364 121.015H25.4017C24.095 121.015 23.0357 122.075 23.0357 123.381V159.866C23.0357 161.173 24.095 162.232 25.4017 162.232H69.1364C70.443 162.232 71.5023 161.173 71.5023 159.866V123.381C71.5023 122.075 70.443 121.015 69.1364 121.015Z" fill="#D4CEF8"/>
<path id="Vector_33" d="M69.1262 163.257H25.4017C24.504 163.255 23.6439 162.896 23.0101 162.26C22.3762 161.625 22.0203 160.764 22.0203 159.866V123.392C22.0203 122.494 22.3762 121.633 23.0101 120.997C23.6439 120.361 24.504 120.003 25.4017 120H69.1262C70.0249 120.003 70.886 120.361 71.5214 120.996C72.1569 121.632 72.5151 122.493 72.5178 123.392V159.866C72.5151 160.765 72.1569 161.626 71.5214 162.261C70.886 162.897 70.0249 163.255 69.1262 163.257ZM25.4017 122.031C25.2235 122.031 25.047 122.066 24.8825 122.135C24.718 122.203 24.5687 122.304 24.4431 122.43C24.3176 122.556 24.2183 122.707 24.151 122.872C24.0838 123.037 24.0498 123.213 24.0512 123.392V159.866C24.0498 160.044 24.0838 160.221 24.151 160.386C24.2183 160.551 24.3176 160.701 24.4431 160.827C24.5687 160.954 24.718 161.054 24.8825 161.123C25.047 161.191 25.2235 161.227 25.4017 161.227H69.1262C69.4871 161.227 69.8332 161.083 70.0884 160.828C70.3435 160.573 70.4869 160.227 70.4869 159.866V123.392C70.4869 123.031 70.3435 122.685 70.0884 122.429C69.8332 122.174 69.4871 122.031 69.1262 122.031H25.4017Z" fill="black"/>
<path id="Vector_34" d="M70.7408 129.88H23.0154C22.7461 129.88 22.4878 129.773 22.2974 129.583C22.107 129.392 22 129.134 22 128.865C22 128.595 22.107 128.337 22.2974 128.147C22.4878 127.956 22.7461 127.849 23.0154 127.849H70.7408C71.0101 127.849 71.2683 127.956 71.4588 128.147C71.6492 128.337 71.7562 128.595 71.7562 128.865C71.7562 129.134 71.6492 129.392 71.4588 129.583C71.2683 129.773 71.0101 129.88 70.7408 129.88Z" fill="black"/>
<path id="Vector_35" d="M62.8102 140.613H31.7177C31.4484 140.613 31.1901 140.506 30.9997 140.316C30.8092 140.125 30.7022 139.867 30.7022 139.598C30.7022 139.329 30.8092 139.07 30.9997 138.88C31.1901 138.689 31.4484 138.582 31.7177 138.582H62.8102C63.0795 138.582 63.3378 138.689 63.5282 138.88C63.7187 139.07 63.8256 139.329 63.8256 139.598C63.8256 139.867 63.7187 140.125 63.5282 140.316C63.3378 140.506 63.0795 140.613 62.8102 140.613Z" fill="white"/>
<path id="Vector_36" d="M55.6413 150.524H31.7177C31.4484 150.524 31.1901 150.417 30.9997 150.226C30.8092 150.036 30.7022 149.778 30.7022 149.508C30.7022 149.239 30.8092 148.981 30.9997 148.79C31.1901 148.6 31.4484 148.493 31.7177 148.493H55.6413C55.9106 148.493 56.1688 148.6 56.3593 148.79C56.5497 148.981 56.6567 149.239 56.6567 149.508C56.6567 149.778 56.5497 150.036 56.3593 150.226C56.1688 150.417 55.9106 150.524 55.6413 150.524Z" fill="white"/>
</g>
</g>
</g>
</svg>
