<svg width="210" height="255" viewBox="0 0 210 255" fill="none" xmlns="http://www.w3.org/2000/svg">
<path d="M198.708 122.998C198.724 147.204 189.428 170.489 172.745 188.028C156.062 205.567 133.271 216.016 109.094 217.21C107.53 217.281 105.967 217.322 104.384 217.322C102.801 217.322 101.237 217.322 99.6744 217.21C75.3187 215.998 52.3789 205.401 35.6677 187.641C18.9564 169.882 9.77268 146.341 10.0432 121.956C10.3136 97.5721 20.0174 74.2402 37.1184 56.8558C54.2195 39.4713 77.3888 29.3855 101.765 28.7143C102.638 28.7143 103.511 28.7143 104.384 28.7143C105.257 28.7143 106.13 28.7143 107.003 28.7143C131.556 29.3937 154.876 39.6253 172.002 57.2329C189.128 74.8405 198.709 98.4349 198.708 122.998Z" fill="white"/>
<path d="M104.384 218.337C102.861 218.337 101.339 218.337 99.6236 218.225C75.002 217.006 51.8098 206.297 34.9141 188.346C18.0183 170.394 8.73271 146.597 9.00586 121.946C9.27901 97.2961 19.0897 73.7098 36.3791 56.1375C53.6684 38.5651 77.0922 28.3727 101.735 27.6994C103.491 27.6385 105.267 27.6385 107.043 27.6994C131.686 28.3744 155.109 38.5682 172.397 56.1414C189.685 73.7147 199.494 97.3012 199.766 121.951C200.038 146.601 190.751 170.398 173.855 188.349C156.958 206.299 133.766 217.007 109.144 218.225C107.429 218.296 105.906 218.337 104.384 218.337ZM104.384 29.6888C103.521 29.6888 102.658 29.6888 101.806 29.6888C77.6951 30.356 54.7794 40.3339 37.8654 57.5295C20.9514 74.7251 11.3532 97.8023 11.084 121.921C10.8149 146.039 19.8957 169.325 36.4218 186.894C52.948 204.463 75.6353 214.949 99.7251 216.154C103.004 216.307 105.815 216.307 109.053 216.154C114.233 215.911 119.384 215.232 124.451 214.124C146.691 209.223 166.371 196.357 179.782 177.951C193.194 159.545 199.411 136.869 197.262 114.197C195.113 91.5246 184.746 70.4209 168.115 54.8624C151.484 39.3038 129.737 30.3647 106.972 29.7294C106.109 29.6989 105.247 29.6888 104.384 29.6888Z" fill="#093F68"/>
<path d="M104.384 1.0759L108.982 86.2141H99.786L104.384 1.0759Z" fill="#D4CEF8"/>
<path d="M108.982 87.2291H99.786C99.6476 87.23 99.5104 87.2025 99.383 87.1484C99.2556 87.0943 99.1406 87.0146 99.0451 86.9144C98.9496 86.8131 98.8761 86.6933 98.8289 86.5623C98.7818 86.4314 98.7621 86.2921 98.771 86.1532L103.369 1.015C103.369 0.745805 103.476 0.487637 103.666 0.297288C103.857 0.106938 104.115 0 104.384 0C104.653 0 104.911 0.106938 105.102 0.297288C105.292 0.487637 105.399 0.745805 105.399 1.015L109.997 86.1532C110.006 86.2921 109.986 86.4314 109.939 86.5623C109.892 86.6933 109.818 86.8131 109.723 86.9144C109.627 87.0146 109.512 87.0943 109.385 87.1484C109.258 87.2025 109.12 87.23 108.982 87.2291ZM100.862 85.1991H107.967L104.384 19.894L100.862 85.1991Z" fill="#093F68"/>
<path d="M108.982 38.7527H99.786C99.5168 38.7527 99.2586 38.6458 99.0683 38.4554C98.8779 38.2651 98.771 38.0069 98.771 37.7377C98.771 37.4685 98.8779 37.2103 99.0683 37.02C99.2586 36.8296 99.5168 36.7227 99.786 36.7227H108.982C109.251 36.7227 109.509 36.8296 109.7 37.02C109.89 37.2103 109.997 37.4685 109.997 37.7377C109.997 38.0069 109.89 38.2651 109.7 38.4554C109.509 38.6458 109.251 38.7527 108.982 38.7527Z" fill="#093F68"/>
<path d="M111.865 79.8298H96.9034C96.6342 79.8298 96.3761 79.7228 96.1857 79.5325C95.9954 79.3421 95.8884 79.0839 95.8884 78.8148C95.8884 78.5456 95.9954 78.2874 96.1857 78.097C96.3761 77.9067 96.6342 77.7998 96.9034 77.7998H111.865C112.134 77.7998 112.392 77.9067 112.582 78.097C112.773 78.2874 112.88 78.5456 112.88 78.8148C112.88 79.0839 112.773 79.3421 112.582 79.5325C112.392 79.7228 112.134 79.8298 111.865 79.8298Z" fill="#093F68"/>
<path d="M110.271 68.5836H98.4969C98.2277 68.5836 97.9696 68.4766 97.7792 68.2863C97.5889 68.0959 97.4819 67.8377 97.4819 67.5686C97.4819 67.2994 97.5889 67.0412 97.7792 66.8508C97.9696 66.6605 98.2277 66.5536 98.4969 66.5536H110.271C110.54 66.5536 110.798 66.6605 110.989 66.8508C111.179 67.0412 111.286 67.2994 111.286 67.5686C111.286 67.8377 111.179 68.0959 110.989 68.2863C110.798 68.4766 110.54 68.5836 110.271 68.5836Z" fill="#093F68"/>
<path d="M77.8722 100.404H130.896L122.847 95.1562H85.9211L77.8722 100.404Z" fill="#093F68"/>
<path d="M130.896 101.419H77.8721C77.6456 101.428 77.4226 101.361 77.2387 101.228C77.0547 101.096 76.9204 100.906 76.8571 100.688C76.7952 100.479 76.8022 100.256 76.8772 100.051C76.9521 99.846 77.091 99.6709 77.2733 99.5512L85.3324 94.3037C85.4957 94.1981 85.686 94.1418 85.8805 94.1413H122.806C123.001 94.1418 123.191 94.1981 123.354 94.3037L131.413 99.5512C131.596 99.6709 131.735 99.846 131.809 100.051C131.884 100.256 131.891 100.479 131.83 100.688C131.77 100.892 131.648 101.073 131.48 101.204C131.313 101.335 131.108 101.41 130.896 101.419ZM81.2927 99.3888H127.475L122.542 96.1713H86.2256L81.2927 99.3888Z" fill="#093F68"/>
<path d="M77.8722 119.689H130.896L122.847 124.936H85.9211L77.8722 119.689Z" fill="#093F68"/>
<path d="M122.847 125.951H85.9211C85.7266 125.951 85.5364 125.894 85.373 125.789L77.3139 120.541C77.1317 120.422 76.9928 120.247 76.9178 120.042C76.8429 119.837 76.8358 119.614 76.8978 119.405C76.9611 119.187 77.0954 118.997 77.2793 118.864C77.4633 118.732 77.6863 118.665 77.9128 118.674H130.936C131.163 118.665 131.386 118.732 131.57 118.864C131.754 118.997 131.888 119.187 131.951 119.405C132.013 119.614 132.006 119.837 131.931 120.042C131.856 120.247 131.717 120.422 131.535 120.541L123.476 125.789C123.29 125.911 123.069 125.968 122.847 125.951ZM86.2256 123.921H122.542L127.475 120.704H81.2927L86.2256 123.921Z" fill="#093F68"/>
<path d="M124.684 215.129C119.556 216.241 114.345 216.92 109.104 217.159C107.541 217.23 105.977 217.271 104.394 217.271C102.811 217.271 101.248 217.271 99.6845 217.159C94.4434 216.92 89.2317 216.241 84.1042 215.129C94.4978 180.68 93.1682 134.944 93.1682 134.944H115.62C115.62 134.944 114.28 180.68 124.684 215.129Z" fill="#D4CEF8"/>
<path d="M104.384 218.337C102.861 218.337 101.339 218.337 99.6236 218.225C94.3234 217.963 89.0543 217.26 83.8708 216.124C83.7357 216.093 83.6083 216.035 83.4966 215.953C83.3849 215.871 83.2912 215.767 83.2212 215.647C83.1488 215.526 83.1025 215.391 83.085 215.252C83.0675 215.112 83.0793 214.97 83.1197 214.835C93.3509 180.934 92.1532 135.472 92.143 135.015C92.1382 134.879 92.1609 134.743 92.2097 134.616C92.2586 134.489 92.3325 134.372 92.4272 134.274C92.5224 134.177 92.6362 134.1 92.7617 134.048C92.8873 133.996 93.022 133.969 93.158 133.97H115.61C115.746 133.969 115.881 133.996 116.006 134.048C116.132 134.1 116.245 134.177 116.341 134.274C116.435 134.372 116.509 134.489 116.558 134.616C116.607 134.743 116.63 134.879 116.625 135.015C116.625 135.472 115.417 180.944 125.648 214.835C125.689 214.97 125.7 215.112 125.683 215.252C125.665 215.391 125.619 215.526 125.547 215.647C125.477 215.767 125.383 215.871 125.271 215.953C125.16 216.035 125.032 216.093 124.897 216.124C119.714 217.26 114.444 217.963 109.144 218.225C107.429 218.296 105.906 218.337 104.384 218.337ZM85.3831 214.348C90.1093 215.327 94.9044 215.938 99.7251 216.175C103.004 216.327 105.815 216.327 109.053 216.175C113.87 215.937 118.662 215.326 123.385 214.348C114.25 183.157 114.463 142.932 114.575 135.98H94.2339C94.305 142.953 94.5181 183.177 85.3831 214.348Z" fill="#093F68"/>
<path d="M109.094 134.65V217.21C107.531 217.281 105.967 217.322 104.384 217.322C102.801 217.322 101.238 217.322 99.6744 217.21V134.65H109.094Z" fill="#D4CEF8"/>
<path d="M104.384 218.337C102.862 218.337 101.339 218.337 99.6237 218.225C99.3634 218.212 99.1181 218.099 98.9385 217.91C98.759 217.721 98.6591 217.471 98.6594 217.21V134.65C98.6594 134.381 98.7664 134.123 98.9567 133.932C99.1471 133.742 99.4052 133.635 99.6744 133.635H109.094C109.363 133.635 109.621 133.742 109.811 133.932C110.002 134.123 110.109 134.381 110.109 134.65V217.21C110.109 217.471 110.009 217.721 109.83 217.91C109.65 218.099 109.405 218.212 109.144 218.225C107.429 218.296 105.907 218.337 104.384 218.337ZM100.689 216.236C103.247 216.327 105.521 216.327 108.079 216.236V135.665H100.689V216.236Z" fill="#093F68"/>
<path d="M125.8 124.936H82.9675C80.9831 124.936 79.3744 126.545 79.3744 128.529V131.057C79.3744 133.041 80.9831 134.65 82.9675 134.65H125.8C127.785 134.65 129.394 133.041 129.394 131.057V128.529C129.394 126.545 127.785 124.936 125.8 124.936Z" fill="#D4CEF8"/>
<path d="M125.8 135.665H82.9675C81.7453 135.665 80.5732 135.179 79.709 134.315C78.8449 133.451 78.3594 132.279 78.3594 131.057V128.529C78.3621 127.308 78.8484 126.138 79.712 125.274C80.5756 124.41 81.7461 123.924 82.9675 123.921H125.8C127.022 123.924 128.192 124.41 129.056 125.274C129.92 126.138 130.406 127.308 130.409 128.529V131.057C130.409 132.279 129.923 133.451 129.059 134.315C128.195 135.179 127.023 135.665 125.8 135.665ZM82.9675 125.951C82.2837 125.951 81.628 126.223 81.1445 126.706C80.661 127.19 80.3894 127.846 80.3894 128.529V131.057C80.3894 131.741 80.661 132.396 81.1445 132.88C81.628 133.363 82.2837 133.635 82.9675 133.635H125.8C126.484 133.635 127.14 133.363 127.623 132.88C128.107 132.396 128.379 131.741 128.379 131.057V128.529C128.379 127.846 128.107 127.19 127.623 126.706C127.14 126.223 126.484 125.951 125.8 125.951H82.9675Z" fill="#093F68"/>
<path d="M91.5849 86.0415H117.173C118.392 86.0415 119.562 86.526 120.424 87.3883C121.287 88.2505 121.771 89.4201 121.771 90.6395V95.1563H86.9869V90.6395C86.9869 89.4201 87.4714 88.2505 88.3337 87.3883C89.1959 86.526 90.3654 86.0415 91.5849 86.0415Z" fill="#D4CEF8"/>
<path d="M121.781 96.1713H86.9869C86.7177 96.1713 86.4596 96.0643 86.2692 95.874C86.0789 95.6836 85.9719 95.4254 85.9719 95.1563V90.6395C85.9719 89.1499 86.563 87.7212 87.6153 86.667C88.6676 85.6127 90.0953 85.0191 91.5849 85.0164H117.183C118.673 85.0191 120.1 85.6127 121.153 86.667C122.205 87.7212 122.796 89.1499 122.796 90.6395V95.1563C122.796 95.4254 122.689 95.6836 122.499 95.874C122.308 96.0643 122.05 96.1713 121.781 96.1713ZM88.0019 94.1413H120.766V90.6395C120.766 89.6883 120.389 88.7759 119.717 88.1024C119.046 87.4288 118.134 87.0491 117.183 87.0464H91.5849C90.6337 87.0491 89.7224 87.4288 89.0507 88.1024C88.3791 88.7759 88.0019 89.6883 88.0019 90.6395V94.1413Z" fill="#093F68"/>
<path d="M95.4824 125.2C95.221 125.199 94.9702 125.097 94.782 124.916L89.23 119.679C89.0335 119.493 88.9188 119.237 88.9112 118.966C88.9036 118.696 89.0036 118.434 89.1894 118.237C89.3751 118.041 89.6313 117.926 89.9016 117.919C90.1719 117.911 90.4342 118.011 90.6307 118.197L96.1726 123.444C96.3616 123.634 96.4677 123.892 96.4677 124.16C96.4677 124.428 96.3616 124.685 96.1726 124.875C95.9935 125.069 95.7459 125.186 95.4824 125.2Z" fill="#093F68"/>
<path d="M113.285 125.2C113.148 125.198 113.012 125.169 112.887 125.113C112.761 125.057 112.648 124.976 112.555 124.875C112.366 124.685 112.26 124.428 112.26 124.16C112.26 123.892 112.366 123.634 112.555 123.444L118.097 118.197C118.194 118.105 118.308 118.033 118.433 117.985C118.559 117.937 118.692 117.915 118.826 117.919C118.959 117.922 119.091 117.952 119.213 118.007C119.336 118.062 119.446 118.14 119.538 118.237C119.63 118.335 119.702 118.449 119.749 118.574C119.797 118.699 119.82 118.833 119.816 118.966C119.812 119.1 119.782 119.232 119.728 119.354C119.673 119.476 119.595 119.587 119.497 119.679L113.945 124.916C113.767 125.088 113.533 125.189 113.285 125.2Z" fill="#093F68"/>
<path d="M104.384 125.2C104.115 125.2 103.857 125.093 103.666 124.903C103.476 124.713 103.369 124.454 103.369 124.185V119.811C103.369 119.541 103.476 119.283 103.666 119.093C103.857 118.903 104.115 118.796 104.384 118.796C104.653 118.796 104.911 118.903 105.102 119.093C105.292 119.283 105.399 119.541 105.399 119.811V124.185C105.399 124.454 105.292 124.713 105.102 124.903C104.911 125.093 104.653 125.2 104.384 125.2Z" fill="#093F68"/>
<path d="M129.932 100.404H78.8466C77.1817 100.404 75.832 101.753 75.832 103.418V116.552C75.832 118.217 77.1817 119.567 78.8466 119.567H129.932C131.596 119.567 132.946 118.217 132.946 116.552V103.418C132.946 101.753 131.596 100.404 129.932 100.404Z" fill="#D4CEF8"/>
<path d="M129.932 120.582H78.8365C77.7597 120.582 76.727 120.154 75.9656 119.393C75.2042 118.631 74.7765 117.599 74.7765 116.522V103.327C74.7765 102.25 75.2042 101.218 75.9656 100.456C76.727 99.6948 77.7597 99.267 78.8365 99.267H129.932C131.008 99.267 132.041 99.6948 132.802 100.456C133.564 101.218 133.992 102.25 133.992 103.327V116.522C133.992 117.055 133.887 117.583 133.683 118.076C133.479 118.568 133.179 119.016 132.802 119.393C132.425 119.77 131.978 120.069 131.485 120.273C130.993 120.477 130.465 120.582 129.932 120.582ZM78.8365 101.419C78.2981 101.419 77.7818 101.633 77.4011 102.013C77.0204 102.394 76.8065 102.91 76.8065 103.449V116.644C76.8065 117.182 77.0204 117.699 77.4011 118.079C77.7818 118.46 78.2981 118.674 78.8365 118.674H129.932C130.47 118.674 130.986 118.46 131.367 118.079C131.748 117.699 131.962 117.182 131.962 116.644V103.449C131.962 102.91 131.748 102.394 131.367 102.013C130.986 101.633 130.47 101.419 129.932 101.419H78.8365Z" fill="#093F68"/>
<path d="M135.413 107.976H73.1118C72.8426 107.976 72.5844 107.869 72.3941 107.678C72.2037 107.488 72.0968 107.23 72.0968 106.961C72.0968 106.692 72.2037 106.433 72.3941 106.243C72.5844 106.053 72.8426 105.946 73.1118 105.946H135.413C135.682 105.946 135.94 106.053 136.13 106.243C136.321 106.433 136.428 106.692 136.428 106.961C136.428 107.23 136.321 107.488 136.13 107.678C135.94 107.869 135.682 107.976 135.413 107.976Z" fill="#093F68"/>
<path d="M135.413 114.025H73.1118C72.8426 114.025 72.5844 113.918 72.3941 113.728C72.2037 113.537 72.0968 113.279 72.0968 113.01C72.0968 112.741 72.2037 112.483 72.3941 112.292C72.5844 112.102 72.8426 111.995 73.1118 111.995H135.413C135.682 111.995 135.94 112.102 136.13 112.292C136.321 112.483 136.428 112.741 136.428 113.01C136.428 113.279 136.321 113.537 136.13 113.728C135.94 113.918 135.682 114.025 135.413 114.025Z" fill="#093F68"/>
<path d="M73.2133 195.367H67.2147C66.9455 195.367 66.6873 195.26 66.497 195.07C66.3066 194.88 66.1997 194.621 66.1997 194.352V174.225H48.63C48.3608 174.225 48.1027 174.118 47.9123 173.927C47.722 173.737 47.615 173.479 47.615 173.21V161.08H34.217V178.924C34.217 179.193 34.1101 179.452 33.9197 179.642C33.7294 179.832 33.4712 179.939 33.202 179.939C32.9328 179.939 32.6746 179.832 32.4843 179.642C32.2939 179.452 32.187 179.193 32.187 178.924V160.065C32.187 159.796 32.2939 159.538 32.4843 159.348C32.6746 159.157 32.9328 159.05 33.202 159.05H48.63C48.8992 159.05 49.1574 159.157 49.3477 159.348C49.5381 159.538 49.645 159.796 49.645 160.065V172.195H67.2147C67.4839 172.195 67.742 172.302 67.9324 172.492C68.1227 172.682 68.2297 172.941 68.2297 173.21V193.337H72.1983V166.064C72.1983 165.795 72.3052 165.537 72.4956 165.346C72.6859 165.156 72.9441 165.049 73.2133 165.049H89.9304C90.1996 165.049 90.4577 165.156 90.6481 165.346C90.8384 165.537 90.9454 165.795 90.9454 166.064C90.9454 166.333 90.8384 166.591 90.6481 166.782C90.4577 166.972 90.1996 167.079 89.9304 167.079H74.2283V194.352C74.2283 194.621 74.1214 194.88 73.931 195.07C73.7407 195.26 73.4825 195.367 73.2133 195.367Z" fill="#DFEAEF"/>
<path d="M150.374 192.454H141.239C140.969 192.454 140.711 192.347 140.521 192.157C140.331 191.966 140.224 191.708 140.224 191.439V186.303H129.394C129.124 186.303 128.866 186.196 128.676 186.006C128.486 185.816 128.379 185.557 128.379 185.288V177.808H121.781C121.512 177.808 121.254 177.701 121.063 177.51C120.873 177.32 120.766 177.062 120.766 176.793C120.766 176.523 120.873 176.265 121.063 176.075C121.254 175.885 121.512 175.778 121.781 175.778H129.394C129.663 175.778 129.921 175.885 130.111 176.075C130.302 176.265 130.409 176.523 130.409 176.793V184.263H141.229C141.498 184.263 141.756 184.37 141.946 184.56C142.137 184.751 142.244 185.009 142.244 185.278V190.414H149.349V170.012C149.349 169.743 149.455 169.485 149.646 169.295C149.836 169.104 150.094 168.997 150.364 168.997H172.694C172.963 168.997 173.221 169.104 173.411 169.295C173.602 169.485 173.708 169.743 173.708 170.012V180.731C173.708 181 173.602 181.258 173.411 181.449C173.221 181.639 172.963 181.746 172.694 181.746C172.424 181.746 172.166 181.639 171.976 181.449C171.785 181.258 171.679 181 171.679 180.731V171.027H151.379V191.439C151.379 191.707 151.273 191.963 151.085 192.153C150.897 192.343 150.641 192.451 150.374 192.454Z" fill="#DFEAEF"/>
<path d="M59.2063 126.936H27.4469C23.7117 126.936 20.6769 124.48 20.6769 121.455C20.6769 119.141 22.4836 117.08 25.1429 116.309C25.8073 115.134 26.7616 114.149 27.9146 113.447C29.0677 112.745 30.3813 112.35 31.7302 112.3C32.4712 109.356 35.7192 107.164 39.5559 107.164C40.9569 107.116 42.3476 107.419 43.6011 108.047C44.8546 108.675 45.931 109.606 46.7319 110.757C48.3747 109.991 50.167 109.599 51.9795 109.61C57.0545 109.61 61.3276 112.584 62.1295 116.502C63.1997 116.839 64.1425 117.493 64.833 118.377C65.5235 119.262 65.9293 120.335 65.9966 121.455C65.9763 124.48 62.9415 126.936 59.2063 126.936ZM32.5828 114.289C29.9032 114.289 27.5078 115.619 26.8278 117.527C26.7677 117.684 26.6695 117.824 26.5419 117.934C26.4143 118.044 26.2614 118.12 26.097 118.156C24.067 118.593 22.7069 119.953 22.7069 121.455C22.7069 123.363 24.8282 124.906 27.4469 124.906H59.2063C61.825 124.906 63.9463 123.363 63.9463 121.455C63.9463 120.054 62.7283 118.765 60.9013 118.248C60.7047 118.191 60.5298 118.077 60.3993 117.919C60.2689 117.761 60.1892 117.568 60.1705 117.364C59.866 114.157 56.2628 111.64 51.9693 111.64C50.1502 111.619 48.36 112.096 46.7928 113.02C46.6647 113.098 46.5209 113.147 46.3717 113.163C46.2225 113.179 46.0717 113.161 45.9301 113.112C45.7872 113.061 45.6574 112.979 45.5503 112.872C45.4432 112.765 45.3614 112.635 45.3109 112.492C44.6207 110.554 42.2659 109.194 39.5457 109.194C36.3789 109.194 33.7704 111.021 33.5877 113.355C33.5672 113.61 33.4513 113.848 33.2632 114.021C33.075 114.194 32.8284 114.29 32.5727 114.289H32.5828Z" fill="#DFEAEF"/>
<path d="M48.63 118.065C48.3882 118.068 48.1531 117.985 47.967 117.831C47.7809 117.676 47.6561 117.461 47.615 117.222C47.3594 115.961 46.6337 114.843 45.585 114.096C44.9175 113.762 44.1858 113.575 43.4396 113.549C42.6935 113.522 41.9504 113.657 41.2611 113.944C41.004 114.025 40.7254 114 40.4865 113.875C40.2476 113.751 40.068 113.536 39.9873 113.279C39.9065 113.022 39.9312 112.743 40.0559 112.504C40.1805 112.266 40.395 112.086 40.6521 112.005C41.5525 111.591 42.5371 111.392 43.5277 111.425C44.5183 111.458 45.4876 111.721 46.3586 112.194C47.2297 112.667 47.9784 113.336 48.5454 114.149C49.1123 114.962 49.4819 115.896 49.6247 116.877C49.648 117.009 49.6449 117.145 49.6156 117.275C49.5863 117.406 49.5313 117.53 49.4539 117.639C49.3766 117.749 49.2783 117.842 49.1647 117.913C49.0512 117.984 48.9246 118.033 48.7924 118.055L48.63 118.065Z" fill="#DFEAEF"/>
<path d="M177.017 141.329H156.149C153.5 141.329 151.348 139.552 151.348 137.38C151.385 136.605 151.651 135.858 152.111 135.233C152.572 134.608 153.207 134.134 153.936 133.868C154.566 131.189 157.428 129.24 160.889 129.24C162.028 129.237 163.157 129.461 164.208 129.9C164.78 129.166 165.518 128.578 166.362 128.185C167.205 127.791 168.13 127.603 169.06 127.636C170.202 127.574 171.336 127.867 172.305 128.476C173.274 129.085 174.03 129.98 174.47 131.036C175.345 131.108 176.191 131.386 176.937 131.849C177.683 132.311 178.309 132.944 178.763 133.696C179.595 133.909 180.338 134.38 180.885 135.042C181.432 135.704 181.756 136.523 181.808 137.38C181.818 139.552 179.667 141.329 177.017 141.329ZM160.899 131.27C158.26 131.27 156.047 132.782 155.824 134.721C155.806 134.925 155.726 135.118 155.595 135.275C155.465 135.433 155.29 135.548 155.093 135.604C154.078 135.898 153.348 136.619 153.348 137.38C153.348 138.395 154.616 139.299 156.119 139.299H176.977C178.479 139.299 179.748 138.416 179.748 137.38C179.748 136.548 178.946 135.797 177.799 135.543C177.634 135.507 177.482 135.431 177.354 135.321C177.226 135.211 177.128 135.071 177.068 134.914C176.74 134.301 176.241 133.796 175.633 133.459C175.024 133.122 174.331 132.968 173.637 133.016C173.382 133.017 173.135 132.921 172.947 132.748C172.759 132.575 172.643 132.337 172.622 132.082C172.521 130.742 170.917 129.666 169.06 129.666C168.356 129.614 167.653 129.77 167.037 130.115C166.422 130.459 165.922 130.978 165.599 131.605C165.548 131.748 165.466 131.878 165.359 131.985C165.252 132.092 165.122 132.174 164.979 132.224C164.836 132.275 164.684 132.293 164.533 132.278C164.382 132.262 164.236 132.212 164.107 132.133C163.138 131.553 162.028 131.255 160.899 131.27Z" fill="#DFEAEF"/>
<path d="M167.801 136.304C167.542 136.305 167.293 136.206 167.104 136.029C166.915 135.852 166.802 135.609 166.786 135.35C166.654 133.32 164.249 132.204 164.228 132.194C163.982 132.085 163.789 131.882 163.692 131.631C163.595 131.38 163.602 131.1 163.711 130.854C163.82 130.607 164.022 130.415 164.273 130.317C164.525 130.22 164.804 130.227 165.05 130.336C165.193 130.397 168.593 131.94 168.806 135.228C168.823 135.496 168.733 135.76 168.556 135.961C168.379 136.163 168.13 136.286 167.862 136.304H167.801Z" fill="#DFEAEF"/>
<path d="M162.077 76.9573H132.368C128.835 76.9573 125.963 74.6228 125.963 71.7605C126.025 70.7049 126.406 69.693 127.055 68.8578C127.703 68.0226 128.589 67.4033 129.597 67.0814C130.358 63.4071 134.387 60.6057 139.127 60.6057C140.81 60.5788 142.477 60.9255 144.01 61.6207C144.768 60.5483 145.781 59.6809 146.957 59.0963C148.133 58.5117 149.436 58.2282 150.749 58.2712C154.352 58.2712 157.397 60.3012 158.128 63.0823C159.387 63.1368 160.612 63.51 161.688 64.1668C162.764 64.8236 163.655 65.7426 164.279 66.8378C165.411 67.0875 166.431 67.6973 167.187 68.5756C167.942 69.454 168.393 70.5536 168.471 71.7098C168.471 74.6228 165.609 76.9573 162.077 76.9573ZM139.127 62.6357C135.138 62.6357 131.799 64.9702 131.515 67.934C131.496 68.1376 131.417 68.3309 131.286 68.4885C131.156 68.6461 130.981 68.7606 130.784 68.817C129.12 69.2941 127.993 70.4816 127.993 71.7605C127.993 73.5063 129.962 74.9273 132.368 74.9273H162.077C164.482 74.9273 166.441 73.5063 166.441 71.7605C166.441 70.3801 165.162 69.1418 163.325 68.7155C163.161 68.6794 163.008 68.603 162.88 68.4932C162.753 68.3833 162.654 68.2435 162.594 68.0862C161.935 66.3303 159.742 65.1021 157.286 65.1021C157.03 65.1029 156.784 65.0072 156.595 64.8341C156.407 64.661 156.291 64.4232 156.271 64.1683C156.108 62.0165 153.693 60.3316 150.769 60.3316C148.262 60.3316 146.07 61.5801 145.441 63.3766C145.39 63.5195 145.309 63.6492 145.201 63.7564C145.094 63.8635 144.964 63.9453 144.822 63.9958C144.679 64.0468 144.526 64.0651 144.375 64.0493C144.224 64.0335 144.078 63.984 143.949 63.9044C142.49 63.0427 140.821 62.6034 139.127 62.6357Z" fill="#DFEAEF"/>
<path d="M140.173 68.1877C139.931 68.1877 139.697 68.1013 139.513 67.9441C139.412 67.8575 139.329 67.7517 139.268 67.6329C139.208 67.5141 139.171 67.3845 139.161 67.2516C139.151 67.1188 139.166 66.9851 139.208 66.8584C139.249 66.7316 139.315 66.6142 139.402 66.5129C144.558 60.5041 150.12 64.6149 150.171 64.6656C150.29 64.7402 150.393 64.8388 150.473 64.9552C150.552 65.0716 150.606 65.2033 150.632 65.3419C150.658 65.4804 150.654 65.6228 150.622 65.76C150.59 65.8972 150.529 66.0261 150.444 66.1386C150.359 66.2511 150.252 66.3447 150.129 66.4134C150.006 66.4821 149.87 66.5244 149.729 66.5377C149.589 66.5509 149.448 66.5348 149.314 66.4904C149.18 66.4459 149.057 66.3741 148.953 66.2795C148.526 65.9649 144.761 63.3766 140.944 67.8325C140.849 67.9439 140.731 68.0333 140.598 68.0946C140.464 68.156 140.32 68.1877 140.173 68.1877Z" fill="#DFEAEF"/>
<path d="M11.34 232.96V235.7H7.62V247H4.2V235.7H0.48V232.96H11.34ZM21.5364 247.16C20.4431 247.16 19.4564 246.927 18.5764 246.46C17.7097 245.993 17.0231 245.327 16.5164 244.46C16.0231 243.593 15.7764 242.58 15.7764 241.42C15.7764 240.273 16.0297 239.267 16.5364 238.4C17.0431 237.52 17.7364 236.847 18.6164 236.38C19.4964 235.913 20.4831 235.68 21.5764 235.68C22.6697 235.68 23.6564 235.913 24.5364 236.38C25.4164 236.847 26.1097 237.52 26.6164 238.4C27.1231 239.267 27.3764 240.273 27.3764 241.42C27.3764 242.567 27.1164 243.58 26.5964 244.46C26.0897 245.327 25.3897 245.993 24.4964 246.46C23.6164 246.927 22.6297 247.16 21.5364 247.16ZM21.5364 244.2C22.1897 244.2 22.7431 243.96 23.1964 243.48C23.6631 243 23.8964 242.313 23.8964 241.42C23.8964 240.527 23.6697 239.84 23.2164 239.36C22.7764 238.88 22.2297 238.64 21.5764 238.64C20.9097 238.64 20.3564 238.88 19.9164 239.36C19.4764 239.827 19.2564 240.513 19.2564 241.42C19.2564 242.313 19.4697 243 19.8964 243.48C20.3364 243.96 20.8831 244.2 21.5364 244.2ZM36.0108 237.7C36.4108 237.087 36.9108 236.607 37.5108 236.26C38.1108 235.9 38.7774 235.72 39.5108 235.72V239.34H38.5708C37.7174 239.34 37.0774 239.527 36.6508 239.9C36.2241 240.26 36.0108 240.9 36.0108 241.82V247H32.5908V235.84H36.0108V237.7ZM49.6255 247.16C48.5321 247.16 47.5455 246.927 46.6655 246.46C45.7988 245.993 45.1121 245.327 44.6055 244.46C44.1121 243.593 43.8655 242.58 43.8655 241.42C43.8655 240.273 44.1188 239.267 44.6255 238.4C45.1321 237.52 45.8255 236.847 46.7055 236.38C47.5855 235.913 48.5721 235.68 49.6655 235.68C50.7588 235.68 51.7455 235.913 52.6255 236.38C53.5055 236.847 54.1988 237.52 54.7055 238.4C55.2121 239.267 55.4655 240.273 55.4655 241.42C55.4655 242.567 55.2055 243.58 54.6855 244.46C54.1788 245.327 53.4788 245.993 52.5855 246.46C51.7055 246.927 50.7188 247.16 49.6255 247.16ZM49.6255 244.2C50.2788 244.2 50.8321 243.96 51.2855 243.48C51.7521 243 51.9855 242.313 51.9855 241.42C51.9855 240.527 51.7588 239.84 51.3055 239.36C50.8655 238.88 50.3188 238.64 49.6655 238.64C48.9988 238.64 48.4455 238.88 48.0055 239.36C47.5655 239.827 47.3455 240.513 47.3455 241.42C47.3455 242.313 47.5588 243 47.9855 243.48C48.4255 243.96 48.9721 244.2 49.6255 244.2ZM67.4798 235.72C68.7865 235.72 69.8265 236.147 70.5998 237C71.3865 237.84 71.7798 239 71.7798 240.48V247H68.3798V240.94C68.3798 240.193 68.1865 239.613 67.7998 239.2C67.4132 238.787 66.8932 238.58 66.2398 238.58C65.5865 238.58 65.0665 238.787 64.6798 239.2C64.2932 239.613 64.0998 240.193 64.0998 240.94V247H60.6798V235.84H64.0998V237.32C64.4465 236.827 64.9132 236.44 65.4998 236.16C66.0865 235.867 66.7465 235.72 67.4798 235.72ZM83.7764 244.1V247H82.0364C80.7964 247 79.8297 246.7 79.1364 246.1C78.4431 245.487 78.0964 244.493 78.0964 243.12V238.68H76.7364V235.84H78.0964V233.12H81.5164V235.84H83.7564V238.68H81.5164V243.16C81.5164 243.493 81.5964 243.733 81.7564 243.88C81.9164 244.027 82.1831 244.1 82.5564 244.1H83.7764ZM94.1614 247.16C93.0681 247.16 92.0814 246.927 91.2014 246.46C90.3347 245.993 89.6481 245.327 89.1414 244.46C88.6481 243.593 88.4014 242.58 88.4014 241.42C88.4014 240.273 88.6547 239.267 89.1614 238.4C89.6681 237.52 90.3614 236.847 91.2414 236.38C92.1214 235.913 93.1081 235.68 94.2014 235.68C95.2947 235.68 96.2814 235.913 97.1614 236.38C98.0414 236.847 98.7347 237.52 99.2414 238.4C99.7481 239.267 100.001 240.273 100.001 241.42C100.001 242.567 99.7414 243.58 99.2214 244.46C98.7147 245.327 98.0147 245.993 97.1214 246.46C96.2414 246.927 95.2547 247.16 94.1614 247.16ZM94.1614 244.2C94.8147 244.2 95.3681 243.96 95.8214 243.48C96.2881 243 96.5214 242.313 96.5214 241.42C96.5214 240.527 96.2947 239.84 95.8414 239.36C95.4014 238.88 94.8547 238.64 94.2014 238.64C93.5347 238.64 92.9814 238.88 92.5414 239.36C92.1014 239.827 91.8814 240.513 91.8814 241.42C91.8814 242.313 92.0947 243 92.5214 243.48C92.9614 243.96 93.5081 244.2 94.1614 244.2ZM113.816 238.56V241.4H105.016V238.56H113.816ZM123.637 237.42C123.957 236.9 124.417 236.48 125.017 236.16C125.617 235.84 126.304 235.68 127.077 235.68C127.997 235.68 128.831 235.913 129.577 236.38C130.324 236.847 130.911 237.513 131.337 238.38C131.777 239.247 131.997 240.253 131.997 241.4C131.997 242.547 131.777 243.56 131.337 244.44C130.911 245.307 130.324 245.98 129.577 246.46C128.831 246.927 127.997 247.16 127.077 247.16C126.291 247.16 125.604 247.007 125.017 246.7C124.431 246.38 123.971 245.96 123.637 245.44V247H120.217V232.2H123.637V237.42ZM128.517 241.4C128.517 240.547 128.277 239.88 127.797 239.4C127.331 238.907 126.751 238.66 126.057 238.66C125.377 238.66 124.797 238.907 124.317 239.4C123.851 239.893 123.617 240.567 123.617 241.42C123.617 242.273 123.851 242.947 124.317 243.44C124.797 243.933 125.377 244.18 126.057 244.18C126.737 244.18 127.317 243.933 127.797 243.44C128.277 242.933 128.517 242.253 128.517 241.4ZM136.512 241.4C136.512 240.253 136.725 239.247 137.152 238.38C137.592 237.513 138.185 236.847 138.932 236.38C139.678 235.913 140.512 235.68 141.432 235.68C142.218 235.68 142.905 235.84 143.492 236.16C144.092 236.48 144.552 236.9 144.872 237.42V235.84H148.292V247H144.872V245.42C144.538 245.94 144.072 246.36 143.472 246.68C142.885 247 142.198 247.16 141.412 247.16C140.505 247.16 139.678 246.927 138.932 246.46C138.185 245.98 137.592 245.307 137.152 244.44C136.725 243.56 136.512 242.547 136.512 241.4ZM144.872 241.42C144.872 240.567 144.632 239.893 144.152 239.4C143.685 238.907 143.112 238.66 142.432 238.66C141.752 238.66 141.172 238.907 140.692 239.4C140.225 239.88 139.992 240.547 139.992 241.4C139.992 242.253 140.225 242.933 140.692 243.44C141.172 243.933 141.752 244.18 142.432 244.18C143.112 244.18 143.685 243.933 144.152 243.44C144.632 242.947 144.872 242.273 144.872 241.42ZM158.706 247.16C157.732 247.16 156.866 246.993 156.106 246.66C155.346 246.327 154.746 245.873 154.306 245.3C153.866 244.713 153.619 244.06 153.566 243.34H156.946C156.986 243.727 157.166 244.04 157.486 244.28C157.806 244.52 158.199 244.64 158.666 244.64C159.092 244.64 159.419 244.56 159.646 244.4C159.886 244.227 160.006 244.007 160.006 243.74C160.006 243.42 159.839 243.187 159.506 243.04C159.172 242.88 158.632 242.707 157.886 242.52C157.086 242.333 156.419 242.14 155.886 241.94C155.352 241.727 154.892 241.4 154.506 240.96C154.119 240.507 153.926 239.9 153.926 239.14C153.926 238.5 154.099 237.92 154.446 237.4C154.806 236.867 155.326 236.447 156.006 236.14C156.699 235.833 157.519 235.68 158.466 235.68C159.866 235.68 160.966 236.027 161.766 236.72C162.579 237.413 163.046 238.333 163.166 239.48H160.006C159.952 239.093 159.779 238.787 159.486 238.56C159.206 238.333 158.832 238.22 158.366 238.22C157.966 238.22 157.659 238.3 157.446 238.46C157.232 238.607 157.126 238.813 157.126 239.08C157.126 239.4 157.292 239.64 157.626 239.8C157.972 239.96 158.506 240.12 159.226 240.28C160.052 240.493 160.726 240.707 161.246 240.92C161.766 241.12 162.219 241.453 162.606 241.92C163.006 242.373 163.212 242.987 163.226 243.76C163.226 244.413 163.039 245 162.666 245.52C162.306 246.027 161.779 246.427 161.086 246.72C160.406 247.013 159.612 247.16 158.706 247.16ZM179.238 241.24C179.238 241.56 179.218 241.893 179.178 242.24H171.438C171.491 242.933 171.711 243.467 172.098 243.84C172.498 244.2 172.985 244.38 173.558 244.38C174.411 244.38 175.005 244.02 175.338 243.3H178.978C178.791 244.033 178.451 244.693 177.958 245.28C177.478 245.867 176.871 246.327 176.138 246.66C175.405 246.993 174.585 247.16 173.678 247.16C172.585 247.16 171.611 246.927 170.758 246.46C169.905 245.993 169.238 245.327 168.758 244.46C168.278 243.593 168.038 242.58 168.038 241.42C168.038 240.26 168.271 239.247 168.738 238.38C169.218 237.513 169.885 236.847 170.738 236.38C171.591 235.913 172.571 235.68 173.678 235.68C174.758 235.68 175.718 235.907 176.558 236.36C177.398 236.813 178.051 237.46 178.518 238.3C178.998 239.14 179.238 240.12 179.238 241.24ZM175.738 240.34C175.738 239.753 175.538 239.287 175.138 238.94C174.738 238.593 174.238 238.42 173.638 238.42C173.065 238.42 172.578 238.587 172.178 238.92C171.791 239.253 171.551 239.727 171.458 240.34H175.738ZM183.762 241.4C183.762 240.253 183.976 239.247 184.402 238.38C184.842 237.513 185.436 236.847 186.182 236.38C186.929 235.913 187.762 235.68 188.682 235.68C189.416 235.68 190.082 235.833 190.682 236.14C191.296 236.447 191.776 236.86 192.122 237.38V232.2H195.542V247H192.122V245.4C191.802 245.933 191.342 246.36 190.742 246.68C190.156 247 189.469 247.16 188.682 247.16C187.762 247.16 186.929 246.927 186.182 246.46C185.436 245.98 184.842 245.307 184.402 244.44C183.976 243.56 183.762 242.547 183.762 241.4ZM192.122 241.42C192.122 240.567 191.882 239.893 191.402 239.4C190.936 238.907 190.362 238.66 189.682 238.66C189.002 238.66 188.422 238.907 187.942 239.4C187.476 239.88 187.242 240.547 187.242 241.4C187.242 242.253 187.476 242.933 187.942 243.44C188.422 243.933 189.002 244.18 189.682 244.18C190.362 244.18 190.936 243.933 191.402 243.44C191.882 242.947 192.122 242.273 192.122 241.42ZM203.017 247.16C202.417 247.16 201.923 246.987 201.537 246.64C201.163 246.28 200.977 245.84 200.977 245.32C200.977 244.787 201.163 244.34 201.537 243.98C201.923 243.62 202.417 243.44 203.017 243.44C203.603 243.44 204.083 243.62 204.457 243.98C204.843 244.34 205.037 244.787 205.037 245.32C205.037 245.84 204.843 246.28 204.457 246.64C204.083 246.987 203.603 247.16 203.017 247.16Z" fill="#D4CEF8" fill-opacity="0.5"/>
</svg>
